<svg width="14" height="16" viewBox="0 0 14 16" fill="none" xmlns="http://www.w3.org/2000/svg">
<g id="SVG" clip-path="url(#clip0_3_86)">
<path id="Vector" d="M6.565 7.75C8.63708 7.75 10.3164 6.07129 10.3164 4C10.3164 1.92871 8.63708 0.25 6.565 0.25C4.49292 0.25 2.81357 1.92871 2.81357 4C2.81357 6.07129 4.49292 7.75 6.565 7.75ZM9.191 8.6875H8.70156C8.05092 8.98633 7.32701 9.15625 6.565 9.15625C5.80299 9.15625 5.08201 8.98633 4.42844 8.6875H3.939C1.76434 8.6875 0 10.4512 0 12.625V13.8438C0 14.6201 0.630123 15.25 1.40679 15.25H11.7232C12.4999 15.25 13.13 14.6201 13.13 13.8438V12.625C13.13 10.4512 11.3657 8.6875 9.191 8.6875Z" fill="black"/>
</g>
<defs>
<clipPath id="clip0_3_86">
<rect width="13.13" height="15" fill="white" transform="translate(0 0.25)"/>
</clipPath>
</defs>
</svg>
