<svg width="37" height="39" viewBox="0 0 37 39" fill="none" xmlns="http://www.w3.org/2000/svg">
<path d="M18.9073 1.37845C20.6023 2.40369 23.0738 3.39994 26.2548 4.33669C27.8827 4.82032 29.3061 5.1697 30.1407 5.3665C30.0171 6.59771 29.9881 9.11961 30.9569 13.187C31.1659 14.0658 31.7121 17.2254 29.9972 20.977C28.1665 24.9849 24.4332 28.2467 18.9073 30.674C13.3799 28.2467 9.64963 24.9849 7.81732 20.977C6.10859 17.2315 6.64868 14.0719 6.85769 13.1931C7.8219 9.12571 7.79749 6.60381 7.67239 5.37261C8.51302 5.1758 9.93188 4.82642 11.5597 4.34279C14.7392 3.39994 17.2047 2.40369 18.9073 1.37845ZM18.9347 0.369995L18.9073 0.385252L18.8798 0.369995C14.9574 2.9636 6.69139 4.70437 6.69139 4.70437C6.69139 4.70437 7.39472 7.1683 6.014 12.9917C5.2344 16.278 5.20083 25.7675 18.9073 31.6245C32.6122 25.7675 32.5786 16.278 31.8006 12.9917C30.4183 7.1683 31.1293 4.70437 31.1293 4.70437C31.1293 4.70437 22.8618 2.9636 18.9347 0.369995Z" fill="white"/>
<path d="M18.9073 2.13052C22.1798 3.99029 27.2297 5.33438 29.4465 5.87599C29.3672 7.31468 29.4694 9.73741 30.3238 13.3425C30.577 14.4105 32.3971 23.9092 18.9073 29.9721C5.41596 23.9092 7.23759 14.4059 7.48933 13.338C8.34522 9.73284 8.44591 7.3101 8.3681 5.87141C10.5833 5.33439 15.6333 3.98571 18.9073 2.12594M18.9073 1.87573C15.6134 3.78737 10.4552 5.15436 8.14078 5.7097C8.23537 7.08278 8.16977 9.53908 7.27879 13.2937C7.024 14.3891 5.16423 24.0801 18.9073 30.2056C32.6549 24.0801 30.7952 14.3891 30.5358 13.2922C29.6448 9.53755 29.5792 7.08278 29.6738 5.7097C27.3594 5.15588 22.1981 3.7889 18.9073 1.88184V1.87573Z" fill="white"/>
<path d="M34.4446 11.965C34.6424 12.0856 34.8703 12.1479 35.102 12.1446C35.3336 12.1414 35.5597 12.0727 35.7541 11.9466C35.9484 11.8205 36.1032 11.642 36.2006 11.4317C36.2979 11.2215 36.3339 10.988 36.3043 10.7582C36.1489 10.7782 35.9992 10.83 35.8645 10.9103C35.7299 10.9906 35.6132 11.0977 35.5217 11.225C35.3749 11.4186 35.2903 11.6521 35.2791 11.8948C35.1763 11.6748 35.0086 11.4916 34.7985 11.37C34.6654 11.287 34.5167 11.2324 34.3615 11.2095C34.2064 11.1867 34.0482 11.1961 33.8969 11.2372C33.9334 11.3896 34.0008 11.5328 34.0951 11.658C34.1893 11.7832 34.3082 11.8877 34.4446 11.965Z" fill="white"/>
<path d="M3.36246 11.965C3.23307 12.0452 3.08896 12.0988 2.93859 12.1227C2.78822 12.1465 2.6346 12.1401 2.48674 12.1038C2.1805 12.0506 1.9069 11.8805 1.72361 11.6295C1.54032 11.3785 1.46166 11.0661 1.50422 10.7582C1.66114 10.7769 1.81245 10.828 1.94851 10.9084C2.08457 10.9888 2.2024 11.0966 2.2945 11.225C2.44185 11.4183 2.52651 11.652 2.53708 11.8948C2.64097 11.6751 2.80908 11.4921 3.01919 11.37C3.15196 11.287 3.30046 11.2323 3.45537 11.2095C3.61028 11.1866 3.76824 11.1961 3.91932 11.2372C3.88209 11.3905 3.81335 11.5344 3.71748 11.6597C3.62161 11.785 3.5007 11.889 3.36246 11.965Z" fill="white"/>
<path d="M35.7658 13.0131C35.6185 13.2064 35.5338 13.4401 35.5232 13.6829C35.4209 13.4626 35.2531 13.2793 35.0426 13.1581C34.9096 13.0751 34.7608 13.0205 34.6057 12.9976C34.4505 12.9748 34.2923 12.9842 34.141 13.0253C34.2232 13.3253 34.416 13.583 34.6806 13.7465C34.9453 13.91 35.262 13.9672 35.5671 13.9064C35.8722 13.8457 36.1429 13.6716 36.3247 13.4192C36.5065 13.1668 36.5859 12.8549 36.5469 12.5463C36.3917 12.5663 36.2422 12.6181 36.1078 12.6985C35.9734 12.7788 35.857 12.8859 35.7658 13.0131Z" fill="white"/>
<path d="M2.0473 13.0131C2.1962 13.2058 2.28246 13.4395 2.29445 13.6828C2.39679 13.4626 2.56462 13.2793 2.77503 13.158C2.90741 13.0774 3.05487 13.0247 3.20836 13.0032C3.36184 12.9817 3.5181 12.9918 3.66754 13.0329C3.5896 13.334 3.39727 13.5929 3.13146 13.7544C2.86564 13.916 2.5473 13.9674 2.24411 13.8979C1.93782 13.8454 1.664 13.6758 1.48061 13.4249C1.29722 13.174 1.21867 12.8616 1.26159 12.5538C1.4171 12.5722 1.56715 12.6225 1.70234 12.7015C1.83754 12.7805 1.95497 12.8866 2.0473 13.0131Z" fill="white"/>
<path d="M35.987 14.7325C35.8309 14.9378 35.7409 15.1858 35.7292 15.4435C35.6203 15.2097 35.4425 15.0148 35.2196 14.8851C35.0782 14.7978 34.9203 14.7403 34.7558 14.7162C34.5914 14.692 34.4237 14.7017 34.2631 14.7447C34.3014 14.9066 34.3729 15.0587 34.4729 15.1915C34.573 15.3244 34.6994 15.4351 34.8443 15.5167C35.1269 15.6751 35.4569 15.7271 35.7745 15.6633C36.0921 15.5995 36.3764 15.4241 36.576 15.1689C36.6784 15.038 36.7526 14.8874 36.7941 14.7264C36.8356 14.5655 36.8434 14.3977 36.817 14.2336C36.6518 14.2552 36.4928 14.3106 36.3499 14.3964C36.2071 14.4823 36.0836 14.5967 35.987 14.7325Z" fill="white"/>
<path d="M1.82613 14.7325C1.98363 14.937 2.07373 15.1855 2.08397 15.4434C2.19471 15.2089 2.37469 15.014 2.59964 14.885C2.74092 14.7979 2.89849 14.7406 3.0627 14.7164C3.22692 14.6923 3.39433 14.7019 3.5547 14.7447C3.51657 14.9064 3.44538 15.0585 3.34561 15.1913C3.24583 15.3242 3.11963 15.435 2.97495 15.5167C2.8379 15.6023 2.68519 15.66 2.52569 15.6861C2.3662 15.7123 2.20308 15.7066 2.04583 15.6692C1.72084 15.6126 1.43048 15.4322 1.23585 15.1658C1.04122 14.8995 0.957489 14.568 1.00228 14.2412C1.16584 14.2626 1.3233 14.3172 1.46497 14.4017C1.60665 14.4862 1.72955 14.5987 1.82613 14.7325Z" fill="white"/>
<path d="M35.7062 17.4146C35.6273 17.1614 35.4723 16.9387 35.2622 16.7769C35.1306 16.6682 34.978 16.5879 34.814 16.5409C34.6499 16.4939 34.4779 16.4813 34.3087 16.5038C34.3543 16.8399 34.5256 17.1463 34.7881 17.3612C35.0506 17.5761 35.3847 17.6835 35.7232 17.6618C36.0618 17.6402 36.3795 17.491 36.6124 17.2444C36.8454 16.9978 36.9762 16.6721 36.9786 16.3329C36.8073 16.3318 36.6375 16.366 36.48 16.4334C36.3225 16.5009 36.1806 16.6002 36.0632 16.725C35.8766 16.913 35.752 17.1537 35.7062 17.4146Z" fill="white"/>
<path d="M2.10377 17.4146C2.18319 17.1617 2.33812 16.9391 2.54774 16.7769C2.67961 16.6682 2.83249 16.5878 2.99681 16.5408C3.16113 16.4938 3.33338 16.4812 3.50279 16.5038C3.46139 16.8401 3.29087 17.1472 3.02725 17.3601C2.76364 17.5731 2.42757 17.6752 2.09004 17.645C1.75115 17.6323 1.43048 17.4883 1.19587 17.2434C0.961249 16.9986 0.831083 16.672 0.832905 16.3329C1.00423 16.3319 1.17392 16.3662 1.3314 16.4337C1.48889 16.5011 1.6308 16.6003 1.7483 16.725C1.93398 16.9135 2.05796 17.154 2.10377 17.4146Z" fill="white"/>
<path d="M36.0389 18.7892C35.8285 18.9526 35.6734 19.1769 35.595 19.4315C35.5469 19.1693 35.4196 18.9281 35.2303 18.7404C35.1129 18.6156 34.971 18.5164 34.8135 18.449C34.656 18.3815 34.4863 18.3472 34.3149 18.3483C34.3192 18.6889 34.4522 19.0152 34.6872 19.2617C34.9222 19.5083 35.2417 19.6568 35.5817 19.6775C35.9216 19.6982 36.2568 19.5894 36.5199 19.3732C36.783 19.1569 36.9546 18.8491 37.0001 18.5115C36.8294 18.489 36.6559 18.5021 36.4905 18.5498C36.3251 18.5976 36.1713 18.6791 36.0389 18.7892Z" fill="white"/>
<path d="M1.77427 18.7892C1.98465 18.953 2.14006 19.1771 2.21976 19.4315C2.26655 19.1692 2.39339 18.9278 2.58287 18.7404C2.7003 18.6156 2.8422 18.5164 2.9997 18.449C3.1572 18.3815 3.32692 18.3472 3.49826 18.3483C3.49963 18.6894 3.36796 19.0176 3.13123 19.2631C2.8945 19.5087 2.57135 19.6523 2.23044 19.6634C1.89093 19.6928 1.5533 19.589 1.28884 19.3741C1.02438 19.1592 0.853798 18.8499 0.81311 18.5115C0.98381 18.4889 1.15734 18.5019 1.32277 18.5497C1.4882 18.5975 1.64193 18.679 1.77427 18.7892Z" fill="white"/>
<path d="M35.6071 21.1051C35.3445 21.2477 35.1316 21.467 34.9969 21.7337C34.9907 21.4367 34.8938 21.1486 34.7192 20.9083C34.6116 20.7499 34.4725 20.6154 34.3105 20.5132C34.1485 20.4111 33.9672 20.3436 33.7779 20.3148C33.7195 20.6915 33.8064 21.0763 34.0211 21.3913C34.2358 21.7063 34.5622 21.928 34.9342 22.0114C35.3061 22.0948 35.6959 22.0337 36.0245 21.8405C36.3531 21.6473 36.596 21.3364 36.7041 20.9708C36.5218 20.9171 36.3304 20.9013 36.1417 20.9244C35.953 20.9475 35.7711 21.009 35.6071 21.1051Z" fill="white"/>
<path d="M2.20601 21.1052C2.46547 21.2473 2.67562 21.4649 2.80864 21.7292C2.81557 21.4323 2.91239 21.1445 3.08631 20.9038C3.19414 20.7456 3.33335 20.6113 3.49528 20.5092C3.65722 20.4071 3.83843 20.3394 4.02764 20.3103C4.09001 20.686 4.00372 21.0713 3.78702 21.3846C3.57032 21.6978 3.24022 21.9144 2.86662 21.9885C2.49722 22.0814 2.10616 22.0266 1.77653 21.8357C1.44691 21.6449 1.20472 21.333 1.10144 20.9663C1.28519 20.9122 1.47815 20.8966 1.66822 20.9205C1.85829 20.9444 2.04137 21.0072 2.20601 21.1052Z" fill="white"/>
<path d="M34.6826 23.4074C34.376 23.5159 34.1098 23.7156 33.9197 23.9795C33.9663 23.656 33.9131 23.326 33.7672 23.0336C33.6792 22.8419 33.5524 22.6705 33.3949 22.5303C33.2373 22.39 33.0524 22.284 32.8518 22.2189C32.731 22.6138 32.7623 23.0396 32.9395 23.4127C33.1168 23.7857 33.4273 24.0789 33.8098 24.2345C34.1923 24.3902 34.6193 24.3972 35.0066 24.254C35.394 24.1108 35.7138 23.8278 35.9031 23.4608C35.7143 23.3682 35.5084 23.3157 35.2984 23.3066C35.0884 23.2974 34.8787 23.3317 34.6826 23.4074Z" fill="white"/>
<path d="M3.13056 23.4074C3.43683 23.5166 3.7028 23.716 3.89338 23.9795C3.84615 23.656 3.8994 23.3258 4.04595 23.0336C4.13392 22.8419 4.26069 22.6705 4.41825 22.5303C4.57581 22.39 4.76073 22.284 4.96134 22.2189C5.09588 22.6145 5.0713 23.0469 4.89278 23.4247C4.71427 23.8026 4.39581 24.0961 4.00475 24.2434C3.62184 24.4104 3.18906 24.4221 2.79769 24.276C2.40632 24.13 2.08696 23.8377 1.90698 23.4608C2.09618 23.3678 2.30258 23.3151 2.51318 23.3059C2.72377 23.2967 2.93398 23.3312 3.13056 23.4074Z" fill="white"/>
<path d="M33.5704 25.2747C33.2638 25.3833 32.9977 25.5829 32.8076 25.8468C32.8541 25.5233 32.8009 25.1933 32.655 24.9009C32.567 24.7092 32.4403 24.5378 32.2827 24.3976C32.1251 24.2574 31.9402 24.1513 31.7396 24.0862C31.6188 24.4811 31.6501 24.907 31.8274 25.28C32.0046 25.653 32.3151 25.9462 32.6976 26.1019C33.0801 26.2576 33.5071 26.2645 33.8945 26.1213C34.2818 25.9781 34.6016 25.6951 34.7909 25.3281C34.6021 25.2355 34.3963 25.1831 34.1862 25.1739C33.9762 25.1647 33.7665 25.199 33.5704 25.2747Z" fill="white"/>
<path d="M4.24127 25.2747C4.54754 25.3839 4.81351 25.5833 5.0041 25.8468C4.95606 25.5233 5.00936 25.1929 5.15666 24.9009C5.24464 24.7092 5.37141 24.5378 5.52897 24.3976C5.68652 24.2574 5.87145 24.1513 6.07205 24.0862C6.2066 24.4818 6.18202 24.9142 6.0035 25.2921C5.82498 25.6699 5.50653 25.9635 5.11547 26.1107C4.73266 26.2785 4.29958 26.2906 3.90799 26.1445C3.51641 25.9984 3.19709 25.7056 3.0177 25.3281C3.2069 25.2351 3.4133 25.1824 3.62389 25.1732C3.83449 25.164 4.0447 25.1986 4.24127 25.2747Z" fill="white"/>
<path d="M32.4201 27.2459C32.1001 27.3136 31.8088 27.4782 31.5856 27.7173C31.6734 27.4023 31.6628 27.068 31.5551 26.7592C31.492 26.5582 31.3881 26.3724 31.2497 26.2135C31.1113 26.0547 30.9415 25.9262 30.751 25.8362C30.5703 26.2145 30.5401 26.6473 30.6666 27.047C30.7931 27.4467 31.0668 27.7834 31.4323 27.9889C31.7977 28.1943 32.2276 28.2531 32.6349 28.1534C33.0421 28.0537 33.3962 27.8029 33.6254 27.4518C33.4495 27.3363 33.2517 27.2583 33.0443 27.2228C32.8369 27.1874 32.6243 27.1952 32.4201 27.2459Z" fill="white"/>
<path d="M5.3946 27.2458C5.71414 27.3136 6.00502 27.4782 6.2276 27.7173C6.14177 27.4034 6.15348 27.0708 6.26117 26.7637C6.32402 26.5628 6.42776 26.3771 6.56587 26.2183C6.70398 26.0594 6.87346 25.9309 7.06366 25.8407C7.24871 26.217 7.27971 26.6507 7.15009 27.0495C7.02047 27.4484 6.74043 27.781 6.36949 27.9766C6.01038 28.1904 5.58223 28.2563 5.17544 28.1604C4.76865 28.0645 4.41506 27.8142 4.18933 27.4625C4.36437 27.3451 4.56183 27.2652 4.76927 27.2279C4.97671 27.1906 5.18963 27.1967 5.3946 27.2458Z" fill="white"/>
<path d="M30.9601 28.9394C30.6346 28.9701 30.3266 29.1006 30.0782 29.3132C30.2006 29.0101 30.2272 28.6768 30.1545 28.3581C30.1145 28.1515 30.0322 27.9553 29.9127 27.7821C29.7933 27.6088 29.6393 27.4621 29.4603 27.3512C29.2384 27.7068 29.1599 28.1334 29.2407 28.5447C29.3216 28.9559 29.5557 29.3211 29.8956 29.5663C30.2356 29.8114 30.6561 29.9182 31.0718 29.865C31.4876 29.8117 31.8675 29.6025 32.1348 29.2796C31.9731 29.1449 31.7852 29.0452 31.583 28.9866C31.3808 28.9281 31.1688 28.912 30.9601 28.9394Z" fill="white"/>
<path d="M6.85474 28.9394C7.17966 28.9704 7.48709 29.1009 7.73504 29.3132C7.61345 29.0099 7.58685 28.6769 7.65876 28.3581C7.69937 28.1515 7.78209 27.9555 7.90179 27.7822C8.02148 27.609 8.17557 27.4623 8.35446 27.3512C8.57746 27.7049 8.65438 28.1313 8.56899 28.5406C8.48361 28.9499 8.24258 29.3101 7.89676 29.5451C7.56399 29.798 7.14593 29.9118 6.73087 29.8622C6.31582 29.8127 5.93626 29.6038 5.67236 29.2796C5.83503 29.1439 6.02417 29.0436 6.22774 28.985C6.4313 28.9265 6.64484 28.9109 6.85474 28.9394Z" fill="white"/>
<path d="M29.4145 30.799C29.0549 30.8152 28.7089 30.9408 28.4228 31.1591C28.5759 30.8329 28.6249 30.4675 28.5631 30.1125C28.5316 29.8824 28.4527 29.6614 28.3314 29.4634C28.2101 29.2654 28.049 29.0947 27.8583 28.9622C27.5801 29.3397 27.4582 29.81 27.5181 30.2751C27.5779 30.7402 27.8148 31.1643 28.1794 31.4592C28.5441 31.7541 29.0084 31.897 29.4757 31.8581C29.9431 31.8192 30.3774 31.6017 30.6884 31.2506C30.5189 31.0912 30.3182 30.9687 30.0989 30.8909C29.8796 30.8132 29.6465 30.7819 29.4145 30.799Z" fill="white"/>
<path d="M8.39709 30.799C8.75709 30.8151 9.1036 30.9408 9.39029 31.1591C9.23738 30.8329 9.18787 30.4677 9.2484 30.1125C9.28044 29.8826 9.35958 29.6618 9.48086 29.4638C9.60214 29.2659 9.76296 29.0951 9.95325 28.9622C10.221 29.337 10.3325 29.8012 10.2642 30.2568C10.1959 30.7123 9.95305 31.1234 9.5871 31.4032C9.23664 31.7019 8.78393 31.8529 8.32432 31.8245C7.86472 31.796 7.4341 31.5903 7.12317 31.2506C7.2926 31.0912 7.49335 30.9687 7.71266 30.8909C7.93196 30.8132 8.16504 30.7819 8.39709 30.799Z" fill="white"/>
<path d="M27.5944 32.3187C27.2343 32.3033 26.8781 32.3986 26.5737 32.5918C26.7538 32.2795 26.8347 31.9198 26.8056 31.5604C26.7935 31.3287 26.7337 31.1019 26.63 30.8943C26.5263 30.6866 26.381 30.5026 26.203 30.3536C25.9096 30.708 25.761 31.1603 25.7871 31.6197C25.8132 32.079 26.012 32.5115 26.3437 32.8304C26.6753 33.1493 27.1153 33.3311 27.5753 33.3392C28.0353 33.3472 28.4814 33.1811 28.8241 32.874C28.6682 32.702 28.4785 32.564 28.267 32.4685C28.0554 32.3729 27.8265 32.3219 27.5944 32.3187Z" fill="white"/>
<path d="M10.2279 32.3187C10.588 32.3035 10.9442 32.3988 11.2486 32.5918C11.0671 32.28 10.9861 31.9199 11.0167 31.5604C11.0285 31.3288 11.088 31.102 11.1915 30.8944C11.2949 30.6868 11.44 30.5027 11.6178 30.3536C11.8284 30.6197 11.9616 30.9387 12.0029 31.2755C12.0441 31.6123 11.9918 31.954 11.8517 32.263C11.7116 32.5721 11.4891 32.8366 11.2086 33.0275C10.9281 33.2185 10.6004 33.3285 10.2615 33.3454C10.0296 33.3578 9.79767 33.3223 9.58009 33.2412C9.36251 33.1601 9.16394 33.0351 8.9967 32.874C9.15279 32.7019 9.34266 32.5637 9.55449 32.4682C9.76631 32.3726 9.99555 32.3217 10.2279 32.3187Z" fill="white"/>
<path d="M25.3319 33.8093C24.9767 33.7487 24.6115 33.7982 24.2853 33.9511C24.5036 33.6645 24.6292 33.3179 24.6453 32.9579C24.6623 32.7265 24.6314 32.4941 24.5545 32.2751C24.4776 32.0562 24.3563 31.8555 24.1983 31.6855C23.8511 31.9975 23.6368 32.4309 23.5998 32.8963C23.5629 33.3617 23.706 33.8235 23.9996 34.1864C24.2932 34.5493 24.715 34.7857 25.1778 34.8466C25.6406 34.9076 26.1092 34.7886 26.4868 34.5141C26.3538 34.3229 26.1824 34.1615 25.9835 34.0401C25.7847 33.9188 25.5628 33.8402 25.3319 33.8093Z" fill="white"/>
<path d="M12.4859 33.8093C12.8411 33.7484 13.2064 33.7979 13.5325 33.9511C13.314 33.6646 13.1889 33.3179 13.174 32.9579C13.1567 32.7266 13.1873 32.4942 13.264 32.2753C13.3407 32.0563 13.4617 31.8556 13.6195 31.6855C13.8624 31.9227 14.0352 32.2223 14.1188 32.5514C14.2023 32.8804 14.1935 33.2262 14.0931 33.5505C13.9928 33.8749 13.8049 34.1652 13.5501 34.3896C13.2953 34.614 12.9836 34.7637 12.6492 34.8223C12.421 34.8645 12.1866 34.8592 11.9606 34.8067C11.7345 34.7542 11.5218 34.6556 11.3356 34.5172C11.4678 34.3259 11.6384 34.1642 11.8364 34.0424C12.0344 33.9205 12.2556 33.8411 12.4859 33.8093Z" fill="white"/>
<path d="M35.1433 10.8238C35.2322 10.6835 35.2919 10.5266 35.3185 10.3626C35.3452 10.1987 35.3384 10.031 35.2984 9.86973C35.2585 9.70847 35.1863 9.55697 35.0863 9.42438C34.9862 9.29179 34.8602 9.18085 34.7161 9.09827C34.6276 9.23869 34.5683 9.39554 34.5419 9.55943C34.5154 9.72331 34.5224 9.89085 34.5622 10.052C34.6021 10.2131 34.6742 10.3645 34.774 10.4972C34.8739 10.6298 34.9995 10.7409 35.1433 10.8238Z" fill="white"/>
<path d="M2.66983 10.8238C2.58129 10.6834 2.52203 10.5265 2.49559 10.3626C2.46915 10.1987 2.47609 10.0312 2.51598 9.87006C2.55588 9.70892 2.6279 9.5575 2.72775 9.42487C2.82759 9.29225 2.95319 9.18116 3.09702 9.09827C3.18598 9.23856 3.2456 9.39543 3.27227 9.55941C3.29894 9.72338 3.29211 9.89106 3.25218 10.0523C3.21226 10.2136 3.14008 10.3651 3.03999 10.4977C2.9399 10.6303 2.81398 10.7412 2.66983 10.8238Z" fill="white"/>
<path d="M23.62 34.9748C23.2653 34.9141 22.9006 34.9637 22.5749 35.1167C22.7934 34.8302 22.9186 34.4835 22.9335 34.1235C22.9507 33.892 22.92 33.6594 22.8434 33.4402C22.7667 33.221 22.6457 33.02 22.488 32.8496C22.3123 33.0019 22.1702 33.189 22.0707 33.3991C21.9711 33.6092 21.9163 33.8377 21.9098 34.0701C21.9006 34.4527 22.0069 34.8291 22.2149 35.1503C21.7959 35.4242 21.3307 35.6196 20.8418 35.727C20.92 35.8295 20.9724 35.9493 20.9944 36.0764C21.5007 35.9509 21.9755 35.7218 22.3888 35.4036C22.6586 35.7212 23.0351 35.9295 23.4476 35.9894C23.6758 36.0316 23.9102 36.0263 24.1362 35.9738C24.3622 35.9213 24.575 35.8227 24.7612 35.6843C24.6297 35.4942 24.4606 35.3331 24.2643 35.2111C24.068 35.089 23.8487 35.0086 23.62 34.9748Z" fill="white"/>
<path d="M16.9407 35.7194C16.4637 35.6108 16.01 35.4175 15.6012 35.1488C15.8084 34.8273 15.9147 34.4511 15.9063 34.0687C15.8992 33.8364 15.8441 33.6081 15.7446 33.398C15.6451 33.188 15.5033 33.0008 15.3281 32.8481C15.1701 33.0184 15.0488 33.2194 14.9719 33.4385C14.895 33.6577 14.8641 33.8904 14.8811 34.1221C14.8972 34.4821 15.0228 34.8286 15.2411 35.1153C14.9149 34.9624 14.5497 34.9128 14.1945 34.9734C13.9647 35.0052 13.744 35.0841 13.5461 35.2051C13.3481 35.3262 13.1773 35.4867 13.0442 35.6767C13.2301 35.8156 13.4429 35.9145 13.669 35.967C13.8951 36.0195 14.1296 36.0246 14.3578 35.9818C14.7701 35.9216 15.1465 35.7133 15.4166 35.396C15.8262 35.7131 16.2975 35.9412 16.8003 36.0657C16.8245 35.9424 16.8722 35.8248 16.9407 35.7194Z" fill="white"/>
<path d="M20.7656 36.1435C20.7434 36.002 20.6753 35.8717 20.5718 35.7727C20.4834 35.6851 20.3734 35.6225 20.253 35.5912C20.1087 35.5591 19.9595 35.5569 19.8144 35.5847C19.6693 35.6125 19.5314 35.6698 19.4093 35.7529C19.4575 35.5766 19.4786 35.394 19.4718 35.2113C19.4383 34.4927 19.0492 34.0167 18.9073 33.9435C18.7639 34.0167 18.3749 34.4927 18.3428 35.2113C18.3356 35.3939 18.3562 35.5765 18.4039 35.7529C18.2818 35.6697 18.1439 35.6124 17.9988 35.5846C17.8537 35.5568 17.7044 35.559 17.5602 35.5912C17.4374 35.6225 17.3255 35.6869 17.2367 35.7773C17.1371 35.8804 17.0712 36.0113 17.0476 36.1526C17.0166 36.2815 17.0356 36.4173 17.1007 36.5328C17.1658 36.6483 17.2722 36.7348 17.3985 36.7751C17.9248 36.9277 17.3176 36.6225 17.8012 36.3571C18.1247 36.1816 18.4878 36.2747 18.4649 36.7507C18.4512 37.0558 18.3001 37.4342 17.9355 37.2999C17.7723 37.2404 17.9904 37.6844 18.291 37.6966C18.3947 37.6966 18.6831 37.66 18.7227 37.4494C18.7227 37.7164 18.8188 38.0597 18.9073 38.1299C18.9958 38.0566 19.0919 37.7164 19.0919 37.4494C19.1301 37.66 19.4184 37.6996 19.5237 37.6966C19.8288 37.6844 20.0424 37.2389 19.8777 37.2999C19.513 37.4342 19.362 37.0589 19.3482 36.7507C19.3269 36.2747 19.69 36.1816 20.0119 36.3571C20.4971 36.6195 19.8899 36.9216 20.4147 36.7751C20.5425 36.7342 20.6499 36.6461 20.7151 36.5287C20.7803 36.4114 20.7984 36.2736 20.7656 36.1435Z" fill="white"/>
<path d="M19.7007 9.37125H27.5029V8.613H19.7007V7.56641H18.1125V8.613H10.3119V9.37125H18.1125V24.1975H15.8012V25.804H22.0136V24.1975H19.7007V9.37125Z" fill="white"/>
<path d="M28.9019 17.2452H28.9187L26.6958 10.0396H26.2381L28.4625 17.2452H22.7825L25.0069 10.0396H24.5492L22.3157 17.2711H22.334C22.6513 18.4688 24 19.3689 25.6202 19.3689C27.2405 19.3689 28.6151 18.4535 28.9156 17.233L28.9019 17.2452Z" fill="white"/>
<path d="M13.2594 10.0396H12.8017L15.0276 17.2452H9.34612L11.572 10.0396H11.1144L8.89453 17.2391C9.19966 18.4596 10.5544 19.375 12.1899 19.375C13.8254 19.375 15.1589 18.4749 15.4747 17.2772H15.493L13.2594 10.0396Z" fill="white"/>
</svg>
