<svg width="219" height="228" viewBox="0 0 219 228" fill="none" xmlns="http://www.w3.org/2000/svg">
<path d="M109.097 6.08041C119.317 12.262 134.219 18.2688 153.399 23.9169C163.214 26.8329 171.797 28.9394 176.828 30.1261C176.083 37.5495 175.908 52.7552 181.75 77.2792C183.01 82.5777 186.303 101.628 175.964 124.248C164.925 148.414 142.416 168.081 109.097 182.716C75.7702 168.081 53.2791 148.414 42.2313 124.248C31.9287 101.665 35.185 82.6145 36.4453 77.316C42.2589 52.792 42.1117 37.5863 41.3574 30.1629C46.426 28.9762 54.9809 26.8697 64.796 23.9537C83.9663 18.2688 98.8316 12.262 109.097 6.08041ZM109.263 0L109.097 0.0919881L108.932 0C85.2818 15.638 35.4426 26.1338 35.4426 26.1338C35.4426 26.1338 39.6833 40.9899 31.3583 76.1017C26.6577 95.916 26.4554 153.133 109.097 188.447C191.73 153.133 191.528 95.916 186.837 76.1017C178.502 40.9899 182.789 26.1338 182.789 26.1338C182.789 26.1338 132.941 15.638 109.263 0Z" fill="white"/>
<path d="M109.098 10.6153C128.829 21.8286 159.277 29.9328 172.643 33.1984C172.165 41.8728 172.781 56.4806 177.932 78.2173C179.459 84.6565 190.433 141.928 109.098 178.484C27.7526 141.928 38.736 84.6289 40.2538 78.1897C45.4143 56.453 46.0214 41.8453 45.5523 33.1708C58.909 29.9328 89.357 21.8011 109.098 10.5877M109.098 9.0791C89.2374 20.6052 58.1363 28.8473 44.1817 32.1957C44.752 40.4746 44.3564 55.2847 38.9843 77.923C37.4481 84.5277 26.2348 142.959 109.098 179.892C191.988 142.959 180.775 84.5277 179.211 77.9138C173.839 55.2755 173.443 40.4746 174.014 32.1957C160.059 28.8565 128.939 20.6144 109.098 9.1159V9.0791Z" fill="white"/>
<path d="M202.778 69.9109C203.971 70.6381 205.345 71.0136 206.742 70.994C208.139 70.9744 209.502 70.5605 210.674 69.8001C211.846 69.0396 212.779 67.9635 213.366 66.6958C213.953 65.428 214.17 64.0202 213.992 62.6346C213.054 62.7555 212.152 63.0678 211.34 63.552C210.528 64.0362 209.824 64.682 209.273 65.4495C208.388 66.6166 207.878 68.0247 207.81 69.4877C207.191 68.1614 206.179 67.057 204.912 66.3233C204.11 65.8231 203.213 65.4938 202.278 65.3561C201.342 65.2184 200.388 65.2752 199.476 65.523C199.696 66.4418 200.103 67.3054 200.671 68.0602C201.239 68.815 201.956 69.445 202.778 69.9109Z" fill="white"/>
<path d="M15.371 69.9109C14.5909 70.3947 13.722 70.7179 12.8153 70.8616C11.9087 71.0054 10.9824 70.9667 10.0909 70.748C8.24449 70.427 6.59484 69.4017 5.4897 67.8882C4.38456 66.3746 3.91028 64.4911 4.16686 62.6346C5.11301 62.7473 6.02532 63.0558 6.8457 63.5404C7.66608 64.025 8.37654 64.6752 8.93185 65.4495C9.82028 66.6146 10.3307 68.0239 10.3945 69.4877C11.0208 68.1631 12.0344 67.0597 13.3013 66.3233C14.1018 65.8228 14.9972 65.4933 15.9312 65.3556C16.8652 65.2179 17.8177 65.2749 18.7286 65.523C18.5041 66.4474 18.0896 67.3149 17.5116 68.0703C16.9335 68.8257 16.2045 69.4526 15.371 69.9109Z" fill="white"/>
<path d="M210.745 76.2306C209.856 77.3958 209.346 78.805 209.282 80.2689C208.665 78.9409 207.653 77.8357 206.384 77.1045C205.582 76.6042 204.685 76.2749 203.75 76.1372C202.814 75.9995 201.86 76.0563 200.948 76.3042C201.444 78.1131 202.606 79.6669 204.202 80.6527C205.797 81.6385 207.707 81.983 209.547 81.6168C211.386 81.2505 213.018 80.2007 214.115 78.679C215.211 77.1572 215.69 75.2765 215.455 73.4157C214.518 73.5368 213.617 73.8491 212.807 74.3334C211.997 74.8176 211.295 75.4634 210.745 76.2306Z" fill="white"/>
<path d="M7.44153 76.2306C8.33933 77.3928 8.85941 78.8021 8.93174 80.2689C9.54874 78.9409 10.5607 77.8358 11.8294 77.1045C12.6275 76.6185 13.5166 76.3009 14.4421 76.1712C15.3675 76.0415 16.3096 76.1024 17.2107 76.3502C16.7407 78.1658 15.5811 79.7266 13.9784 80.7006C12.3757 81.6746 10.4562 81.985 8.62817 81.5659C6.78144 81.2493 5.13043 80.2264 4.02471 78.7137C2.91899 77.2011 2.44538 75.3175 2.70414 73.4618C3.64179 73.5726 4.54648 73.8756 5.36163 74.3521C6.17678 74.8285 6.88484 75.468 7.44153 76.2306Z" fill="white"/>
<path d="M212.079 86.5977C211.137 87.8354 210.595 89.3307 210.524 90.8843C209.868 89.4748 208.796 88.2999 207.452 87.5176C206.599 86.9911 205.647 86.6445 204.655 86.499C203.663 86.3534 202.652 86.4121 201.684 86.6713C201.916 87.6469 202.346 88.5641 202.95 89.3652C203.553 90.1662 204.315 90.8338 205.189 91.3259C206.893 92.2808 208.882 92.5943 210.797 92.2096C212.712 91.8249 214.426 90.7674 215.629 89.2285C216.247 88.4394 216.695 87.5312 216.945 86.5608C217.195 85.5905 217.242 84.579 217.083 83.5897C216.087 83.7194 215.128 84.0536 214.267 84.5712C213.406 85.0888 212.661 85.7787 212.079 86.5977Z" fill="white"/>
<path d="M6.10798 86.5977C7.05761 87.8311 7.60082 89.3289 7.66258 90.8843C8.33027 89.4705 9.41545 88.2954 10.7718 87.5176C11.6236 86.9924 12.5737 86.6465 13.5638 86.5009C14.5539 86.3554 15.5633 86.4134 16.5302 86.6713C16.3004 87.6464 15.8711 88.5633 15.2695 89.3644C14.6679 90.1654 13.907 90.8333 13.0347 91.3259C12.2083 91.8425 11.2876 92.1899 10.3259 92.3478C9.36425 92.5057 8.38078 92.471 7.43261 92.2458C5.47314 91.9045 3.72244 90.8165 2.54892 89.2106C1.37539 87.6047 0.87055 85.6062 1.14063 83.6357C2.12679 83.7647 3.07616 84.094 3.93039 84.6034C4.78462 85.1127 5.52566 85.7914 6.10798 86.5977Z" fill="white"/>
<path d="M210.385 102.769C209.91 101.242 208.975 99.8997 207.709 98.9238C206.915 98.2685 205.995 97.7841 205.006 97.5008C204.016 97.2174 202.979 97.1413 201.959 97.2772C202.234 99.3039 203.267 101.151 204.85 102.447C206.432 103.742 208.447 104.39 210.488 104.259C212.529 104.129 214.445 103.23 215.85 101.743C217.254 100.256 218.043 98.2921 218.057 96.2469C217.024 96.2399 216.001 96.4463 215.051 96.8531C214.101 97.2598 213.246 97.8583 212.538 98.611C211.413 99.7446 210.661 101.196 210.385 102.769Z" fill="white"/>
<path d="M7.78198 102.769C8.2608 101.244 9.19494 99.9021 10.4588 98.9237C11.254 98.2682 12.1757 97.7837 13.1665 97.5004C14.1573 97.2171 15.1958 97.1411 16.2173 97.2771C15.9677 99.3051 14.9395 101.157 13.35 102.44C11.7606 103.724 9.73428 104.34 7.69919 104.158C5.65589 104.081 3.72244 103.213 2.30783 101.737C0.893217 100.26 0.108393 98.2916 0.119376 96.2469C1.15235 96.241 2.17548 96.4478 3.12504 96.8545C4.07459 97.2613 4.93023 97.8591 5.63866 98.611C6.75826 99.7474 7.50577 101.198 7.78198 102.769Z" fill="white"/>
<path d="M212.392 111.057C211.123 112.042 210.188 113.395 209.715 114.93C209.425 113.349 208.658 111.895 207.516 110.763C206.808 110.011 205.953 109.412 205.003 109.006C204.053 108.599 203.03 108.392 201.997 108.399C202.023 110.452 202.825 112.42 204.241 113.906C205.658 115.393 207.585 116.288 209.635 116.413C211.684 116.538 213.705 115.882 215.292 114.578C216.878 113.274 217.912 111.418 218.187 109.383C217.158 109.247 216.111 109.326 215.114 109.614C214.117 109.902 213.19 110.393 212.392 111.057Z" fill="white"/>
<path d="M5.79525 111.057C7.0637 112.045 8.00074 113.396 8.4813 114.93C8.76342 113.348 9.52818 111.892 10.6706 110.763C11.3787 110.011 12.2343 109.412 13.1839 109.006C14.1335 108.599 15.1568 108.392 16.1899 108.399C16.1982 110.455 15.4043 112.434 13.9769 113.915C12.5496 115.395 10.6012 116.261 8.54569 116.328C6.49862 116.505 4.46289 115.88 2.86837 114.584C1.27384 113.288 0.245324 111.423 0 109.383C1.02922 109.247 2.07554 109.325 3.07297 109.613C4.0704 109.901 4.9973 110.393 5.79525 111.057Z" fill="white"/>
<path d="M209.788 125.021C208.205 125.881 206.921 127.203 206.108 128.811C206.071 127.02 205.487 125.283 204.434 123.834C203.786 122.879 202.947 122.068 201.97 121.452C200.993 120.836 199.9 120.429 198.759 120.256C198.407 122.527 198.931 124.847 200.225 126.747C201.52 128.646 203.488 129.982 205.73 130.485C207.973 130.988 210.323 130.62 212.304 129.455C214.286 128.29 215.751 126.416 216.402 124.211C215.303 123.887 214.149 123.792 213.011 123.931C211.874 124.071 210.777 124.441 209.788 125.021Z" fill="white"/>
<path d="M8.39834 125.021C9.96271 125.878 11.2298 127.19 12.0319 128.783C12.0736 126.993 12.6574 125.258 13.706 123.807C14.3562 122.853 15.1955 122.043 16.1719 121.428C17.1483 120.812 18.2409 120.404 19.3817 120.228C19.7578 122.494 19.2375 124.817 17.9309 126.705C16.6243 128.594 14.634 129.9 12.3814 130.347C10.1542 130.907 7.79626 130.577 5.80883 129.426C3.82139 128.275 2.36113 126.394 1.7384 124.184C2.84633 123.857 4.00973 123.763 5.15574 123.907C6.30174 124.051 7.40566 124.431 8.39834 125.021Z" fill="white"/>
<path d="M204.213 138.902C202.365 139.556 200.76 140.76 199.614 142.351C199.895 140.401 199.574 138.411 198.694 136.648C198.164 135.492 197.399 134.459 196.449 133.613C195.499 132.768 194.384 132.129 193.175 131.736C192.446 134.117 192.635 136.685 193.704 138.934C194.773 141.183 196.645 142.951 198.951 143.889C201.257 144.828 203.832 144.87 206.167 144.006C208.503 143.143 210.431 141.437 211.573 139.224C210.434 138.666 209.193 138.349 207.927 138.294C206.66 138.239 205.396 138.445 204.213 138.902Z" fill="white"/>
<path d="M13.9728 138.902C15.8194 139.56 17.4231 140.763 18.5722 142.351C18.2874 140.401 18.6085 138.41 19.4921 136.648C20.0225 135.492 20.7869 134.459 21.7368 133.613C22.6868 132.768 23.8018 132.129 25.0113 131.736C25.8226 134.121 25.6744 136.729 24.598 139.007C23.5217 141.285 21.6016 143.055 19.2437 143.943C16.935 144.949 14.3255 145.02 11.9658 144.139C9.60607 143.259 7.68052 141.497 6.59534 139.224C7.73608 138.663 8.98058 138.345 10.2503 138.29C11.5201 138.235 12.7876 138.443 13.9728 138.902Z" fill="white"/>
<path d="M197.508 150.161C195.659 150.816 194.055 152.019 192.908 153.611C193.189 151.66 192.868 149.671 191.988 147.907C191.458 146.752 190.694 145.718 189.744 144.873C188.794 144.027 187.679 143.388 186.469 142.995C185.741 145.376 185.929 147.944 186.998 150.193C188.067 152.442 189.939 154.21 192.245 155.149C194.552 156.087 197.126 156.129 199.462 155.266C201.797 154.402 203.726 152.696 204.867 150.483C203.729 149.925 202.487 149.609 201.221 149.553C199.955 149.498 198.69 149.705 197.508 150.161Z" fill="white"/>
<path d="M20.6698 150.161C22.5164 150.819 24.1201 152.022 25.2692 153.611C24.9796 151.66 25.3009 149.668 26.1891 147.907C26.7195 146.752 27.4839 145.718 28.4339 144.873C29.3838 144.027 30.4988 143.388 31.7084 142.995C32.5196 145.381 32.3714 147.988 31.295 150.266C30.2187 152.544 28.2986 154.314 25.9407 155.202C23.6326 156.213 21.0213 156.286 18.6603 155.406C16.2993 154.525 14.374 152.759 13.2924 150.483C14.4331 149.923 15.6776 149.605 16.9474 149.549C18.2171 149.494 19.4846 149.702 20.6698 150.161Z" fill="white"/>
<path d="M190.572 162.046C188.643 162.455 186.886 163.447 185.54 164.889C186.07 162.99 186.006 160.974 185.356 159.112C184.976 157.9 184.35 156.78 183.515 155.822C182.681 154.864 181.657 154.089 180.509 153.547C179.419 155.828 179.237 158.437 180 160.847C180.762 163.258 182.412 165.288 184.616 166.526C186.82 167.765 189.412 168.119 191.867 167.518C194.322 166.917 196.457 165.405 197.839 163.288C196.779 162.591 195.586 162.121 194.336 161.907C193.085 161.694 191.804 161.741 190.572 162.046Z" fill="white"/>
<path d="M27.6237 162.046C29.5504 162.454 31.3042 163.447 32.6463 164.888C32.1288 162.996 32.1994 160.991 32.8487 159.139C33.2276 157.928 33.8531 156.808 34.6858 155.85C35.5186 154.893 36.5404 154.117 37.6872 153.574C38.803 155.843 38.9899 158.458 38.2084 160.862C37.4268 163.267 35.7384 165.272 33.5018 166.452C31.3366 167.741 28.7551 168.139 26.3024 167.56C23.8496 166.982 21.7177 165.473 20.3567 163.352C21.4121 162.644 22.6027 162.163 23.8534 161.938C25.1042 161.713 26.3879 161.75 27.6237 162.046Z" fill="white"/>
<path d="M181.769 172.257C179.806 172.442 177.949 173.229 176.452 174.511C177.19 172.683 177.35 170.674 176.912 168.752C176.671 167.506 176.174 166.324 175.454 165.279C174.734 164.234 173.805 163.349 172.726 162.681C171.388 164.825 170.915 167.397 171.402 169.877C171.89 172.357 173.301 174.559 175.351 176.037C177.401 177.515 179.936 178.158 182.443 177.838C184.949 177.517 187.24 176.255 188.852 174.308C187.877 173.496 186.744 172.895 185.525 172.542C184.306 172.189 183.027 172.092 181.769 172.257Z" fill="white"/>
<path d="M36.4277 172.257C38.3867 172.444 40.2404 173.231 41.7354 174.511C41.0022 172.682 40.8418 170.674 41.2754 168.752C41.5203 167.506 42.0191 166.324 42.7407 165.28C43.4624 164.235 44.3915 163.351 45.4701 162.681C46.8147 164.813 47.2785 167.385 46.7636 169.853C46.2488 172.32 44.7955 174.492 42.7104 175.909C40.704 177.434 38.1834 178.12 35.6808 177.821C33.1782 177.522 30.8897 176.263 29.2986 174.308C30.2794 173.49 31.4198 172.885 32.6472 172.532C33.8746 172.179 35.1621 172.085 36.4277 172.257Z" fill="white"/>
<path d="M172.45 183.47C170.282 183.567 168.196 184.325 166.47 185.641C167.394 183.674 167.689 181.471 167.317 179.331C167.127 177.943 166.651 176.611 165.919 175.417C165.188 174.223 164.217 173.194 163.067 172.395C161.39 174.671 160.655 177.507 161.016 180.311C161.376 183.115 162.804 185.673 165.003 187.451C167.202 189.228 170.001 190.09 172.819 189.856C175.637 189.621 178.256 188.309 180.131 186.193C179.109 185.231 177.899 184.493 176.576 184.024C175.254 183.555 173.849 183.367 172.45 183.47Z" fill="white"/>
<path d="M45.727 183.47C47.8976 183.567 49.9869 184.325 51.7154 185.641C50.7935 183.674 50.495 181.472 50.86 179.331C51.0531 177.944 51.5303 176.613 52.2615 175.419C52.9928 174.226 53.9624 173.196 55.1098 172.395C56.7243 174.655 57.3966 177.454 56.9846 180.201C56.5726 182.947 55.1086 185.426 52.9021 187.113C50.789 188.914 48.0594 189.824 45.2883 189.653C42.5172 189.481 39.9208 188.241 38.046 186.193C39.0676 185.231 40.278 184.493 41.6003 184.024C42.9226 183.555 44.3279 183.367 45.727 183.47Z" fill="white"/>
<path d="M161.476 192.632C159.304 192.539 157.157 193.114 155.322 194.279C156.408 192.396 156.895 190.227 156.72 188.06C156.647 186.663 156.286 185.295 155.661 184.044C155.036 182.792 154.16 181.682 153.087 180.784C151.317 182.921 150.422 185.648 150.579 188.417C150.736 191.187 151.935 193.795 153.935 195.718C155.934 197.64 158.587 198.736 161.361 198.785C164.135 198.834 166.824 197.832 168.89 195.98C167.95 194.944 166.807 194.111 165.531 193.535C164.256 192.959 162.875 192.652 161.476 192.632Z" fill="white"/>
<path d="M56.7658 192.632C58.9371 192.54 61.0845 193.115 62.9198 194.279C61.8256 192.399 61.3373 190.227 61.5216 188.06C61.5931 186.663 61.9519 185.296 62.5755 184.044C63.1991 182.792 64.0741 181.683 65.146 180.784C66.4157 182.388 67.219 184.311 67.4678 186.342C67.7167 188.373 67.4014 190.433 66.5566 192.297C65.7118 194.16 64.3702 195.755 62.6788 196.906C60.9874 198.057 59.0117 198.72 56.9682 198.823C55.5702 198.897 54.1717 198.683 52.8599 198.194C51.548 197.705 50.3507 196.952 49.3424 195.98C50.2835 194.942 51.4283 194.109 52.7055 193.533C53.9827 192.957 55.3649 192.65 56.7658 192.632Z" fill="white"/>
<path d="M147.834 201.62C145.693 201.255 143.491 201.553 141.524 202.475C142.84 200.746 143.598 198.657 143.695 196.487C143.797 195.091 143.611 193.69 143.147 192.37C142.683 191.05 141.952 189.839 141 188.815C138.906 190.696 137.614 193.309 137.391 196.115C137.168 198.921 138.031 201.705 139.801 203.893C141.572 206.082 144.114 207.507 146.905 207.874C149.696 208.242 152.521 207.524 154.798 205.869C153.996 204.717 152.962 203.743 151.763 203.012C150.564 202.28 149.226 201.806 147.834 201.62Z" fill="white"/>
<path d="M70.3802 201.62C72.5217 201.253 74.7241 201.551 76.6906 202.475C75.3733 200.748 74.6186 198.657 74.5289 196.487C74.4247 195.092 74.6095 193.691 75.0717 192.37C75.5339 191.05 76.2635 189.84 77.215 188.815C78.6797 190.245 79.7214 192.051 80.2253 194.035C80.7292 196.019 80.6758 198.104 80.0708 200.059C79.4659 202.015 78.3329 203.766 76.7968 205.119C75.2606 206.472 73.3809 207.374 71.3645 207.728C69.9888 207.982 68.5754 207.95 67.2126 207.633C65.8499 207.317 64.5671 206.723 63.4443 205.888C64.2417 204.735 65.2699 203.76 66.4639 203.025C67.6579 202.29 68.9915 201.812 70.3802 201.62Z" fill="white"/>
<path d="M206.991 63.0303C207.528 62.1844 207.887 61.2386 208.048 60.2499C208.209 59.2613 208.168 58.2503 207.927 57.278C207.686 56.3057 207.251 55.3922 206.647 54.5928C206.044 53.7933 205.285 53.1244 204.416 52.6265C203.882 53.4731 203.524 54.4189 203.365 55.407C203.206 56.3952 203.247 57.4053 203.488 58.3769C203.728 59.3485 204.163 60.2614 204.765 61.0611C205.367 61.8607 206.124 62.5305 206.991 63.0303Z" fill="white"/>
<path d="M11.195 63.0303C10.6612 62.1837 10.3038 61.2379 10.1444 60.2498C9.98502 59.2617 10.0268 58.2515 10.2674 57.2799C10.5079 56.3084 10.9422 55.3954 11.5442 54.5957C12.1462 53.7961 12.9035 53.1263 13.7707 52.6265C14.3071 53.4724 14.6666 54.4182 14.8274 55.4069C14.9881 56.3956 14.947 57.4065 14.7062 58.3789C14.4655 59.3512 14.0303 60.2646 13.4268 61.0641C12.8233 61.8635 12.0641 62.5324 11.195 63.0303Z" fill="white"/>
<path d="M137.513 208.647C135.374 208.281 133.175 208.58 131.211 209.503C132.529 207.775 133.283 205.685 133.373 203.514C133.477 202.118 133.292 200.716 132.83 199.394C132.368 198.073 131.638 196.86 130.687 195.833C129.628 196.752 128.771 197.88 128.171 199.147C127.571 200.413 127.24 201.791 127.201 203.192C127.146 205.499 127.787 207.768 129.041 209.705C126.514 211.356 123.709 212.535 120.762 213.182C121.233 213.8 121.549 214.523 121.681 215.289C124.734 214.532 127.597 213.151 130.089 211.232C131.716 213.148 133.986 214.404 136.473 214.764C137.849 215.019 139.262 214.987 140.625 214.67C141.988 214.354 143.271 213.759 144.393 212.925C143.601 211.778 142.581 210.807 141.397 210.072C140.214 209.336 138.891 208.851 137.513 208.647Z" fill="white"/>
<path d="M97.2401 213.136C94.364 212.481 91.6286 211.316 89.1635 209.696C90.4131 207.757 91.0539 205.489 91.0033 203.183C90.9603 201.783 90.6284 200.406 90.0285 199.14C89.4286 197.873 88.5735 196.745 87.517 195.824C86.5641 196.851 85.833 198.063 85.3692 199.384C84.9055 200.706 84.7191 202.109 84.8217 203.505C84.9188 205.676 85.6762 207.765 86.9926 209.494C85.0256 208.572 82.8237 208.273 80.6822 208.638C79.2967 208.83 77.9657 209.306 76.7723 210.036C75.5789 210.765 74.5488 211.733 73.7463 212.879C74.8675 213.717 76.1502 214.313 77.5135 214.629C78.8768 214.946 80.2909 214.976 81.6665 214.719C84.1528 214.355 86.4219 213.1 88.0505 211.186C90.5203 213.098 93.362 214.474 96.3938 215.225C96.5397 214.481 96.827 213.772 97.2401 213.136Z" fill="white"/>
<path d="M120.302 215.694C120.168 214.84 119.758 214.055 119.134 213.458C118.601 212.93 117.937 212.552 117.211 212.364C116.342 212.17 115.442 212.157 114.567 212.324C113.692 212.492 112.861 212.837 112.124 213.339C112.415 212.276 112.542 211.174 112.501 210.073C112.299 205.74 109.953 202.87 109.098 202.429C108.233 202.87 105.887 205.74 105.694 210.073C105.65 211.174 105.775 212.275 106.062 213.339C105.326 212.837 104.495 212.491 103.62 212.324C102.745 212.156 101.845 212.17 100.975 212.364C100.235 212.552 99.5603 212.94 99.0251 213.486C98.4246 214.107 98.0268 214.896 97.8845 215.749C97.698 216.526 97.8125 217.345 98.205 218.041C98.5974 218.737 99.2388 219.259 100 219.502C103.174 220.422 99.5126 218.582 102.429 216.981C104.379 215.923 106.568 216.485 106.43 219.355C106.347 221.194 105.437 223.476 103.238 222.666C102.254 222.307 103.569 224.984 105.381 225.058C106.007 225.058 107.746 224.837 107.985 223.568C107.985 225.177 108.564 227.247 109.098 227.67C109.631 227.229 110.211 225.177 110.211 223.568C110.441 224.837 112.179 225.076 112.814 225.058C114.654 224.984 115.942 222.298 114.948 222.666C112.75 223.476 111.839 221.213 111.756 219.355C111.627 216.485 113.817 215.923 115.758 216.981C118.683 218.564 115.022 220.385 118.186 219.502C118.957 219.255 119.605 218.724 119.998 218.016C120.391 217.309 120.5 216.478 120.302 215.694Z" fill="white"/>
<path d="M113.882 54.2728H160.924V49.701H113.882V43.3906H104.306V49.701H57.2721V54.2728H104.306V143.667H90.3694V153.353H127.827V143.667H113.882V54.2728Z" fill="white"/>
<path d="M169.359 101.748H169.461L156.058 58.3021H153.298L166.71 101.748H132.463L145.875 58.3021H143.115L129.648 101.904H129.759C131.672 109.125 139.804 114.553 149.573 114.553C159.342 114.553 167.63 109.033 169.442 101.674L169.359 101.748Z" fill="white"/>
<path d="M75.0441 58.3021H72.2845L85.7055 101.748H51.4492L64.8702 58.3021H62.1106L48.7263 101.711C50.5661 109.07 58.7346 114.59 68.5957 114.59C78.4569 114.59 86.4966 109.162 88.4008 101.941H88.5112L75.0441 58.3021Z" fill="white"/>
</svg>
