<svg width="173" height="38" viewBox="0 0 173 38" fill="none" xmlns="http://www.w3.org/2000/svg">
<path d="M48.498 23.1406C48.5957 23.1146 48.7975 23.0755 49.1035 23.0234C49.709 22.9193 50.1061 22.7793 50.2949 22.6035C50.4121 22.4928 50.487 22.2812 50.5195 21.9688C50.526 21.8906 50.5488 20.8978 50.5879 18.9902L50.5781 17.916L50.5879 16.6172L50.5488 13.2871L50.5586 12.8965C50.5586 12.7272 50.513 12.597 50.4219 12.5059C50.3763 12.4603 50.2493 12.4375 50.041 12.4375C49.8717 12.4375 49.6764 12.457 49.4551 12.4961C49.1686 12.5091 48.9115 12.5352 48.6836 12.5742C48.6445 12.5807 48.5827 12.5905 48.498 12.6035L48.4883 11.7441C48.8724 11.6204 49.4225 11.5 50.1387 11.3828C51.3236 11.1875 52.7819 11.0898 54.5137 11.0898C55.959 11.0898 57.0169 11.1712 57.6875 11.334C58.7031 11.5879 59.5299 11.9655 60.168 12.4668C61.0208 13.1374 61.6589 13.9154 62.082 14.8008C62.5117 15.6797 62.7266 16.64 62.7266 17.6816C62.7266 18.9967 62.4401 20.1263 61.8672 21.0703C61.2943 22.0078 60.4707 22.7598 59.3965 23.3262C58.6413 23.7298 57.6159 23.9316 56.3203 23.9316L54.3184 23.8438L53.7324 23.8145L52.9414 23.834L52.707 23.8145L51.8867 23.834L50.8027 23.8242C50.7637 23.8242 50.4316 23.847 49.8066 23.8926C49.5983 23.9056 49.3249 23.9154 48.9863 23.9219C48.778 23.9219 48.6217 23.9251 48.5176 23.9316C48.5046 23.7884 48.498 23.5247 48.498 23.1406ZM53.2344 12.2617C53.2148 12.4635 53.2051 12.6068 53.2051 12.6914L53.2344 14.3516L53.2148 15.7969C53.2344 16.2656 53.2441 16.6758 53.2441 17.0273L53.2344 17.9551L53.2539 19.5078L53.2344 20.4648C53.2344 21.3568 53.4004 21.9622 53.7324 22.2812C54.2142 22.737 54.8783 22.9648 55.7246 22.9648C56.3691 22.9648 56.8444 22.903 57.1504 22.7793C57.7884 22.5319 58.293 22.2031 58.6641 21.793C59.0417 21.3828 59.3281 20.8034 59.5234 20.0547C59.7188 19.2995 59.8164 18.5215 59.8164 17.7207C59.8164 16.4056 59.6048 15.3314 59.1816 14.498C58.765 13.6647 58.1921 13.0397 57.4629 12.623C56.7337 12.1999 55.8971 11.9883 54.9531 11.9883C54.2891 11.9883 53.7161 12.0794 53.2344 12.2617ZM64.0938 23.9023C64.0742 23.668 64.0645 23.4076 64.0645 23.1211C64.4876 22.5156 65.3926 21.3112 66.7793 19.5078L67.375 18.7461C67.4857 18.6224 67.6419 18.4173 67.8438 18.1309C68.1432 17.7012 68.5339 17.1868 69.0156 16.5879C69.5039 15.9824 70.1257 15.1556 70.8809 14.1074C71.1999 13.6712 71.457 13.3262 71.6523 13.0723C71.9323 12.7207 72.1276 12.4603 72.2383 12.291H71.9941L71.1445 12.2812C70.4154 12.2812 69.5332 12.3301 68.498 12.4277C67.4694 12.5189 66.7793 12.6296 66.4277 12.7598C66.1608 12.8574 65.9329 12.9941 65.7441 13.1699C65.373 13.5085 65.1159 13.7884 64.9727 14.0098C64.9206 14.0879 64.8717 14.1628 64.8262 14.2344C64.5723 14.2669 64.429 14.2832 64.3965 14.2832C64.3379 14.2832 64.2565 14.2702 64.1523 14.2441C64.1914 13.9902 64.4779 12.8542 65.0117 10.8359L65.5977 10.7969C65.806 11.2591 65.946 11.5163 66.0176 11.5684C66.1543 11.666 66.3984 11.7148 66.75 11.7148C66.8151 11.7148 66.8737 11.7116 66.9258 11.7051H66.9941C67.515 11.666 68.7715 11.6009 70.7637 11.5098C72.0332 11.4512 73.0195 11.4219 73.7227 11.4219L74.4551 11.4414L75.7051 11.4316C75.7181 11.5749 75.7279 11.7083 75.7344 11.832C75.7083 11.9167 75.4805 12.2454 75.0508 12.8184C74.7513 13.2155 74.5137 13.541 74.3379 13.7949L73.8887 14.4395L73.8594 14.4785L71.1348 18.0527L69.0352 20.8555C68.4492 21.6237 67.9544 22.2975 67.5508 22.877C67.9544 22.9486 68.4622 22.9844 69.0742 22.9844H69.7383L70.1582 23.0039C70.946 23.0039 71.584 22.9648 72.0723 22.8867C72.5605 22.8086 72.9707 22.6816 73.3027 22.5059C73.6413 22.3301 73.9473 22.1055 74.2207 21.832C74.5007 21.5586 74.875 21.0671 75.3438 20.3574C75.5586 20.3379 75.7083 20.3281 75.793 20.3281H76.0371L75.8613 22.418V22.5059C75.8613 22.6361 75.8158 23.1211 75.7246 23.9609L71.8086 23.8438C71.4766 23.8372 71.2161 23.834 71.0273 23.834H69.8945L68.791 23.8242H68.5859L65.9102 23.9023C65.6693 23.9219 65.4609 23.9316 65.2852 23.9316C65.1289 23.9316 64.9564 23.9284 64.7676 23.9219C64.5072 23.9089 64.2826 23.9023 64.0938 23.9023ZM82.3652 23.9316L82.3945 23.2676C83.2083 23.1634 83.7259 22.9974 83.9473 22.7695C84.0905 22.6133 84.2012 22.2064 84.2793 21.5488L84.4062 18.0723L84.5527 14.5371C84.5658 14.3223 84.5723 14.1921 84.5723 14.1465C84.5723 13.2285 84.5169 12.6979 84.4062 12.5547C84.3021 12.4115 83.8854 12.2715 83.1562 12.1348C82.974 12.0957 82.8307 12.0632 82.7266 12.0371C82.7135 11.8743 82.707 11.7376 82.707 11.627V11.3242C82.9479 11.3047 83.2311 11.2949 83.5566 11.2949L86.418 11.3926C86.4831 11.3991 86.5742 11.4056 86.6914 11.4121L87.1406 11.4316C87.2513 11.5618 87.362 11.7344 87.4727 11.9492C87.7135 12.4245 88.0326 13.1211 88.4297 14.0391L88.5371 14.3027L90.0605 17.6133C90.0931 17.6914 90.1452 17.8053 90.2168 17.9551C90.3145 18.1895 90.4154 18.4141 90.5195 18.6289C90.6237 18.8372 90.7311 19.0684 90.8418 19.3223C90.959 19.5762 91.0697 19.8008 91.1738 19.9961C91.265 19.8398 91.3529 19.6673 91.4375 19.4785C91.6979 18.8796 91.9518 18.3294 92.1992 17.8281C92.6289 16.9427 93.2116 15.5885 93.9473 13.7656C94.0645 13.4727 94.2565 13.0332 94.5234 12.4473C94.7969 11.8548 94.9466 11.5423 94.9727 11.5098C95.0312 11.4577 95.1484 11.4316 95.3242 11.4316C95.3893 11.4316 95.4902 11.4284 95.627 11.4219C95.9655 11.4023 96.3724 11.3861 96.8477 11.373C97.5312 11.3665 98.0781 11.347 98.4883 11.3145C98.9049 11.2754 99.1393 11.2559 99.1914 11.2559C99.2565 11.2559 99.3346 11.2624 99.4258 11.2754C99.4323 11.3665 99.4355 11.4382 99.4355 11.4902L99.416 11.7832C99.416 11.8418 99.4128 11.9297 99.4062 12.0469C98.7943 12.138 98.2962 12.2747 97.9121 12.457C97.6452 12.5872 97.5117 12.75 97.5117 12.9453V13.0918L97.6777 16.0801C97.6973 16.3535 97.7493 17.7109 97.834 20.1523C97.8535 20.6992 97.8958 21.3926 97.9609 22.2324C97.974 22.3366 97.9805 22.418 97.9805 22.4766C97.987 22.6328 98.0195 22.7337 98.0781 22.7793C98.1432 22.8249 98.7292 23.0137 99.8359 23.3457C99.8424 23.4499 99.8457 23.528 99.8457 23.5801C99.8457 23.7168 99.8424 23.8535 99.8359 23.9902C99.6602 23.9902 99.2174 23.9544 98.5078 23.8828C97.7982 23.8047 97.1341 23.7656 96.5156 23.7656C95.5716 23.7656 94.6536 23.8047 93.7617 23.8828C93.6445 23.8958 93.5306 23.9056 93.4199 23.9121L93.4395 23.2383C93.7064 23.1341 94.0612 23.0462 94.5039 22.9746C94.8164 22.9225 95.015 22.8346 95.0996 22.7109C95.1842 22.5872 95.2266 22.2422 95.2266 21.6758C95.2266 21.4609 95.2233 21.2721 95.2168 21.1094C95.1842 20.4258 95.1647 19.4753 95.1582 18.2578L94.9922 14.8105C94.9727 14.3223 94.9499 13.9837 94.9238 13.7949L92.4922 19.3809C92.4336 19.5111 92.3457 19.6999 92.2285 19.9473C92.0788 20.2663 91.9779 20.4844 91.9258 20.6016C91.4245 21.806 91.0762 22.7272 90.8809 23.3652C90.8288 23.528 90.7507 23.7396 90.6465 24L89.8945 23.9902L89.3672 22.4961C89.2109 22.1055 88.944 21.513 88.5664 20.7188C88.3451 20.2565 88.1725 19.8822 88.0488 19.5957C87.9902 19.4785 87.9479 19.3906 87.9219 19.332L87.8047 19.0879C87.7982 19.0488 87.7884 19.0163 87.7754 18.9902L86.3203 15.8555L85.4316 13.9512L85.3535 18.5703L85.2852 21.5684C85.2852 22.0632 85.3763 22.418 85.5586 22.6328C85.7474 22.8411 86.1478 23.0202 86.7598 23.1699L87.2285 23.2871V24C86.8509 23.9935 86.444 23.9674 86.0078 23.9219C85.5781 23.8698 85.0052 23.8438 84.2891 23.8438C84.1393 23.8438 83.498 23.873 82.3652 23.9316ZM101.184 17.457C101.184 16.6497 101.34 15.8392 101.652 15.0254C101.88 14.4395 102.199 13.9023 102.609 13.4141C103.02 12.9258 103.534 12.4928 104.152 12.1152C104.771 11.7311 105.402 11.4577 106.047 11.2949C106.691 11.1257 107.411 11.041 108.205 11.041C109.559 11.041 110.734 11.2949 111.73 11.8027C112.727 12.3105 113.511 12.9974 114.084 13.8633C114.826 14.9896 115.197 16.1712 115.197 17.4082C115.197 19.2507 114.569 20.8294 113.312 22.1445C112.062 23.4596 110.321 24.1172 108.088 24.1172C107.535 24.1172 107.017 24.0814 106.535 24.0098C106.171 23.9577 105.852 23.8861 105.578 23.7949C105.083 23.6322 104.807 23.5378 104.748 23.5117C104.038 23.1081 103.469 22.6947 103.039 22.2715C102.609 21.8483 102.245 21.3698 101.945 20.8359C101.783 20.5365 101.597 19.9961 101.389 19.2148C101.252 18.7135 101.184 18.1276 101.184 17.457ZM107.834 12.0078C107.268 12.0078 106.766 12.1413 106.33 12.4082C105.894 12.6686 105.565 12.9583 105.344 13.2773C104.973 13.8177 104.709 14.4102 104.553 15.0547C104.396 15.6927 104.318 16.4707 104.318 17.3887C104.318 17.9486 104.341 18.349 104.387 18.5898C104.4 18.668 104.419 18.8014 104.445 18.9902C104.504 19.472 104.572 19.8236 104.65 20.0449C104.93 20.8717 105.129 21.3828 105.246 21.5781C105.441 21.9102 105.731 22.2389 106.115 22.5645C106.311 22.7337 106.594 22.89 106.965 23.0332C107.336 23.1699 107.707 23.2383 108.078 23.2383C108.781 23.2383 109.432 23.0755 110.031 22.75C110.637 22.418 111.122 21.8581 111.486 21.0703C111.851 20.2826 112.033 19.2572 112.033 17.9941C112.033 17.4733 111.997 16.7669 111.926 15.875L111.877 15.6895C111.857 15.6374 111.825 15.5039 111.779 15.2891C111.538 14.2214 111.076 13.4076 110.393 12.8477C109.715 12.2878 108.863 12.0078 107.834 12.0078ZM116.77 23.9023C116.77 23.707 116.789 23.4759 116.828 23.209L118.049 22.9941C118.199 22.9616 118.378 22.9095 118.586 22.8379L118.713 20.3965C118.687 19.5176 118.674 18.86 118.674 18.4238L118.684 18.1895C118.703 17.9225 118.713 17.252 118.713 16.1777L118.693 15.8945L118.713 15.0742L118.703 14.2246V13.8047C118.703 13.4271 118.674 12.9844 118.615 12.4766C118.609 12.431 118.583 12.3529 118.537 12.2422C118.485 12.2227 118.426 12.2096 118.361 12.2031C118.303 12.1966 118.241 12.1868 118.176 12.1738C117.922 12.1283 117.652 12.0957 117.365 12.0762L117.219 12.0371C117.043 12.0176 116.91 11.9915 116.818 11.959C116.799 11.7702 116.789 11.6497 116.789 11.5977C116.789 11.5195 116.809 11.4121 116.848 11.2754C116.978 11.2493 117.16 11.2363 117.395 11.2363C117.629 11.2363 117.792 11.2331 117.883 11.2266C118.677 11.3112 119.266 11.3568 119.65 11.3633C119.826 11.3633 120.002 11.3698 120.178 11.3828C120.36 11.3893 120.52 11.3926 120.656 11.3926C120.871 11.3926 121.395 11.36 122.229 11.2949C122.365 11.2624 122.515 11.2461 122.678 11.2461C122.919 11.2461 123.12 11.2591 123.283 11.2852C123.29 11.4219 123.293 11.5195 123.293 11.5781C123.293 11.6823 123.28 11.8092 123.254 11.959L121.535 12.2324C121.392 12.2975 121.32 12.3919 121.32 12.5156L121.35 12.877L121.359 13.0332L121.35 13.4629L121.33 13.7949V13.873C121.337 13.9447 121.34 14.0065 121.34 14.0586L121.33 15.2988C121.337 15.416 121.34 15.5039 121.34 15.5625C121.34 15.5951 121.333 15.6992 121.32 15.875C121.314 15.9792 121.311 16.0866 121.311 16.1973C121.311 16.2949 121.32 16.526 121.34 16.8906C121.522 16.9232 121.675 16.9427 121.799 16.9492L123.244 16.9785H123.947L125.705 16.9883L127.414 16.9395C127.635 16.9395 127.87 16.9167 128.117 16.8711C128.13 16.6497 128.14 16.1061 128.146 15.2402L128.166 14.8008L128.107 13.1406L128.039 12.457C128.02 12.4115 127.974 12.3691 127.902 12.3301C127.674 12.1999 127.219 12.0534 126.535 11.8906C126.411 11.8646 126.294 11.832 126.184 11.793C126.197 11.5651 126.223 11.3796 126.262 11.2363C126.405 11.2298 126.493 11.2266 126.525 11.2266L127.473 11.2363C128.078 11.3145 128.693 11.3535 129.318 11.3535C129.462 11.3535 129.576 11.3503 129.66 11.3438L130.93 11.3047C131.047 11.2982 131.161 11.2917 131.271 11.2852C131.506 11.2331 131.747 11.207 131.994 11.207C132.183 11.207 132.411 11.2168 132.678 11.2363C132.671 11.4902 132.655 11.7214 132.629 11.9297C132.03 12.0534 131.636 12.1445 131.447 12.2031C131.265 12.2552 131.079 12.3301 130.891 12.4277L130.832 12.623V12.7891L130.842 13.043L130.832 13.1699C130.819 13.3066 130.812 13.4108 130.812 13.4824V13.7266C130.819 14.0195 130.822 14.1823 130.822 14.2148V15.4551L130.832 16.3926L130.812 17.6328C130.806 17.9193 130.816 18.5052 130.842 19.3906V20.7773L130.861 21.9297C130.861 22.1445 130.855 22.4049 130.842 22.7109C130.979 22.75 131.105 22.7826 131.223 22.8086C131.835 22.9388 132.297 23.0723 132.609 23.209L132.639 23.8926C132.378 23.8991 132.225 23.9023 132.18 23.9023C131.867 23.9023 131.509 23.8828 131.105 23.8438C130.572 23.7852 129.712 23.7559 128.527 23.7559C127.993 23.7559 127.303 23.7982 126.457 23.8828C126.366 23.8828 126.255 23.8633 126.125 23.8242C126.132 23.5247 126.148 23.3132 126.174 23.1895L126.926 23.0137L127.717 22.8867C127.795 22.8672 127.896 22.8379 128.02 22.7988C128.091 22.2715 128.13 21.3958 128.137 20.1719L128.146 19.3418C128.107 18.9967 128.088 18.5833 128.088 18.1016C127.847 18.082 127.587 18.069 127.307 18.0625L122.775 18.0137L122.688 18.0039L122.619 17.9941C122.574 17.9941 122.521 17.9974 122.463 18.0039C122.294 18.0104 122.15 18.0137 122.033 18.0137H121.76C121.636 18.0137 121.496 18.0365 121.34 18.082L121.301 18.8145V18.9414C121.314 19.1172 121.32 19.2311 121.32 19.2832V22.3105C121.32 22.4798 121.33 22.6523 121.35 22.8281L121.447 22.8867L122.883 23.1113C122.954 23.1374 123.01 23.1536 123.049 23.1602C123.133 23.1797 123.205 23.209 123.264 23.248C123.283 23.3978 123.293 23.4987 123.293 23.5508C123.293 23.6354 123.28 23.7526 123.254 23.9023C123.02 23.9089 122.821 23.9121 122.658 23.9121C122.515 23.9121 122.382 23.9089 122.258 23.9023C122.199 23.9023 122.144 23.8991 122.092 23.8926L120.715 23.834C120.389 23.8014 119.934 23.7852 119.348 23.7852L119.143 23.7949C118.869 23.8079 118.71 23.8177 118.664 23.8242C118.26 23.8763 117.629 23.9023 116.77 23.9023ZM133.195 23.9316L133.215 23.2676C133.339 23.2285 133.557 23.1797 133.869 23.1211C134.37 23.0234 134.673 22.9355 134.777 22.8574C134.888 22.7793 135.021 22.5905 135.178 22.291L137.15 17.125L139.465 11.0508C139.68 11.0573 139.885 11.0605 140.08 11.0605H140.52L140.607 11.2363L142.307 15.2598C142.691 16.1126 143.036 16.9427 143.342 17.75C143.648 18.5508 143.911 19.2051 144.133 19.7129C144.263 20.0189 144.442 20.4779 144.67 21.0898C144.787 21.4219 144.966 21.8385 145.207 22.3398C145.337 22.6133 145.435 22.7728 145.5 22.8184C145.617 22.916 145.806 22.9811 146.066 23.0137C146.333 23.0462 146.62 23.1211 146.926 23.2383C146.958 23.4531 146.975 23.6126 146.975 23.7168C146.975 23.7624 146.971 23.834 146.965 23.9316C146.483 23.9316 145.952 23.9089 145.373 23.8633C144.794 23.8177 144.273 23.7949 143.811 23.7949C143.296 23.7949 142.925 23.8014 142.697 23.8145L141.037 23.9023L140.559 23.9219C140.559 23.694 140.568 23.4759 140.588 23.2676L141.672 23.0332C141.997 22.9486 142.186 22.8835 142.238 22.8379C142.303 22.7728 142.336 22.6979 142.336 22.6133C142.336 22.5286 142.32 22.4408 142.287 22.3496L141.896 21.3926L141.125 19.4785L137.395 19.4688C137.258 19.7812 136.975 20.5462 136.545 21.7637C136.421 22.1087 136.359 22.3431 136.359 22.4668C136.359 22.6361 136.405 22.7565 136.496 22.8281C136.646 22.9518 136.932 23.0397 137.355 23.0918C137.414 23.1048 137.645 23.1406 138.049 23.1992C138.055 23.4336 138.059 23.5964 138.059 23.6875C138.059 23.7591 138.052 23.834 138.039 23.9121C137.635 23.9121 136.672 23.8568 135.148 23.7461L134.748 23.8145C134.266 23.8926 133.807 23.9316 133.371 23.9316H133.195ZM137.785 18.4434C139.309 18.4629 140.207 18.4727 140.48 18.4727L140.725 18.4629C140.529 17.8835 140.275 17.2096 139.963 16.4414C139.65 15.6667 139.396 15.0775 139.201 14.6738L137.785 18.4434ZM146.975 23.9316L147.004 23.2676C147.818 23.1634 148.335 22.9974 148.557 22.7695C148.7 22.6133 148.811 22.2064 148.889 21.5488L149.016 18.0723L149.162 14.5371C149.175 14.3223 149.182 14.1921 149.182 14.1465C149.182 13.2285 149.126 12.6979 149.016 12.5547C148.911 12.4115 148.495 12.2715 147.766 12.1348C147.583 12.0957 147.44 12.0632 147.336 12.0371C147.323 11.8743 147.316 11.7376 147.316 11.627V11.3242C147.557 11.3047 147.84 11.2949 148.166 11.2949L151.027 11.3926C151.092 11.3991 151.184 11.4056 151.301 11.4121L151.75 11.4316C151.861 11.5618 151.971 11.7344 152.082 11.9492C152.323 12.4245 152.642 13.1211 153.039 14.0391L153.146 14.3027L154.67 17.6133C154.702 17.6914 154.755 17.8053 154.826 17.9551C154.924 18.1895 155.025 18.4141 155.129 18.6289C155.233 18.8372 155.34 19.0684 155.451 19.3223C155.568 19.5762 155.679 19.8008 155.783 19.9961C155.874 19.8398 155.962 19.6673 156.047 19.4785C156.307 18.8796 156.561 18.3294 156.809 17.8281C157.238 16.9427 157.821 15.5885 158.557 13.7656C158.674 13.4727 158.866 13.0332 159.133 12.4473C159.406 11.8548 159.556 11.5423 159.582 11.5098C159.641 11.4577 159.758 11.4316 159.934 11.4316C159.999 11.4316 160.1 11.4284 160.236 11.4219C160.575 11.4023 160.982 11.3861 161.457 11.373C162.141 11.3665 162.688 11.347 163.098 11.3145C163.514 11.2754 163.749 11.2559 163.801 11.2559C163.866 11.2559 163.944 11.2624 164.035 11.2754C164.042 11.3665 164.045 11.4382 164.045 11.4902L164.025 11.7832C164.025 11.8418 164.022 11.9297 164.016 12.0469C163.404 12.138 162.906 12.2747 162.521 12.457C162.255 12.5872 162.121 12.75 162.121 12.9453V13.0918L162.287 16.0801C162.307 16.3535 162.359 17.7109 162.443 20.1523C162.463 20.6992 162.505 21.3926 162.57 22.2324C162.583 22.3366 162.59 22.418 162.59 22.4766C162.596 22.6328 162.629 22.7337 162.688 22.7793C162.753 22.8249 163.339 23.0137 164.445 23.3457C164.452 23.4499 164.455 23.528 164.455 23.5801C164.455 23.7168 164.452 23.8535 164.445 23.9902C164.27 23.9902 163.827 23.9544 163.117 23.8828C162.408 23.8047 161.743 23.7656 161.125 23.7656C160.181 23.7656 159.263 23.8047 158.371 23.8828C158.254 23.8958 158.14 23.9056 158.029 23.9121L158.049 23.2383C158.316 23.1341 158.671 23.0462 159.113 22.9746C159.426 22.9225 159.624 22.8346 159.709 22.7109C159.794 22.5872 159.836 22.2422 159.836 21.6758C159.836 21.4609 159.833 21.2721 159.826 21.1094C159.794 20.4258 159.774 19.4753 159.768 18.2578L159.602 14.8105C159.582 14.3223 159.559 13.9837 159.533 13.7949L157.102 19.3809C157.043 19.5111 156.955 19.6999 156.838 19.9473C156.688 20.2663 156.587 20.4844 156.535 20.6016C156.034 21.806 155.686 22.7272 155.49 23.3652C155.438 23.528 155.36 23.7396 155.256 24L154.504 23.9902L153.977 22.4961C153.82 22.1055 153.553 21.513 153.176 20.7188C152.954 20.2565 152.782 19.8822 152.658 19.5957C152.6 19.4785 152.557 19.3906 152.531 19.332L152.414 19.0879C152.408 19.0488 152.398 19.0163 152.385 18.9902L150.93 15.8555L150.041 13.9512L149.963 18.5703L149.895 21.5684C149.895 22.0632 149.986 22.418 150.168 22.6328C150.357 22.8411 150.757 23.0202 151.369 23.1699L151.838 23.2871V24C151.46 23.9935 151.053 23.9674 150.617 23.9219C150.188 23.8698 149.615 23.8438 148.898 23.8438C148.749 23.8438 148.107 23.873 146.975 23.9316ZM165.715 23.9414V23.2383C165.845 23.1992 166.06 23.1439 166.359 23.0723C166.783 22.9681 167.098 22.8607 167.307 22.75C167.424 22.5482 167.482 22.2682 167.482 21.9102L167.473 20.7578L167.492 18.5312L167.482 18.0039C167.528 16.7148 167.551 16.0508 167.551 16.0117L167.531 14.7129L167.561 14.1855L167.512 13.0723L167.502 12.6523C167.495 12.5872 167.473 12.4831 167.434 12.3398C167.167 12.2161 166.734 12.138 166.135 12.1055C165.992 12.099 165.878 12.0892 165.793 12.0762L165.764 11.2168L168.557 11.334C168.902 11.347 169.117 11.3535 169.201 11.3535C169.585 11.3535 170.201 11.3275 171.047 11.2754C171.522 11.2428 171.822 11.2233 171.945 11.2168C171.952 11.3405 171.955 11.4447 171.955 11.5293C171.955 11.64 171.949 11.7832 171.936 11.959C171.675 12.0501 171.376 12.138 171.037 12.2227C170.705 12.3008 170.432 12.3822 170.217 12.4668C170.178 12.6361 170.158 12.8802 170.158 13.1992C170.158 13.4792 170.168 13.707 170.188 13.8828C170.168 14.9831 170.158 15.8294 170.158 16.4219L170.168 19L170.139 20.3086L170.158 22.2617L170.148 22.6328C170.148 22.6849 170.161 22.7598 170.188 22.8574C170.585 22.9421 170.946 23.0007 171.271 23.0332C171.33 23.0397 171.529 23.0658 171.867 23.1113C171.893 23.3066 171.906 23.4694 171.906 23.5996C171.906 23.6712 171.903 23.7819 171.896 23.9316C171.812 23.9316 171.747 23.9349 171.701 23.9414C171.493 23.9544 171.372 23.9609 171.34 23.9609C171.294 23.9609 171.21 23.9512 171.086 23.9316C170.995 23.9186 170.562 23.873 169.787 23.7949L168.059 23.7754C167.714 23.7754 167.212 23.8079 166.555 23.873C166.125 23.9121 165.845 23.9349 165.715 23.9414Z" fill="#00447B"/>
<path d="M18.0942 1.00846C19.7892 2.03369 22.2607 3.02994 25.4417 3.96669C27.0696 4.45033 28.493 4.7997 29.3275 4.99651C29.204 6.22771 29.175 8.74961 30.1438 12.817C30.3528 13.6958 30.899 16.8554 29.1841 20.607C27.3534 24.6149 23.6201 27.8767 18.0942 30.304C12.5667 27.8767 8.83652 24.6149 7.00421 20.607C5.29548 16.8615 5.83557 13.7019 6.04458 12.8231C7.00879 8.75572 6.98438 6.23381 6.85928 5.00261C7.69991 4.8058 9.11877 4.45643 10.7466 3.9728C13.9261 3.02994 16.3915 2.03369 18.0942 1.00846ZM18.1216 0L18.0942 0.0152565L18.0667 0C14.1443 2.59361 5.87828 4.33438 5.87828 4.33438C5.87828 4.33438 6.58161 6.7983 5.20089 12.6217C4.42129 15.908 4.38772 25.3975 18.0942 31.2545C31.7991 25.3975 31.7655 15.908 30.9875 12.6217C29.6052 6.7983 30.3162 4.33438 30.3162 4.33438C30.3162 4.33438 22.0487 2.59361 18.1216 0Z" fill="#00447B"/>
<path d="M18.0942 1.76052C21.3667 3.62029 26.4166 4.96439 28.6334 5.506C28.5541 6.94469 28.6563 9.36742 29.5106 12.9725C29.7639 14.0405 31.584 23.5392 18.0942 29.6021C4.60285 23.5392 6.42448 14.0359 6.67622 12.968C7.53211 9.36284 7.6328 6.94011 7.55499 5.50142C9.77024 4.96439 14.8201 3.61571 18.0942 1.75594M18.0942 1.50574C14.8003 3.41738 9.64208 4.78436 7.32767 5.3397C7.42226 6.71279 7.35666 9.16908 6.46567 12.9237C6.21089 14.0191 4.35112 23.7101 18.0942 29.8356C31.8418 23.7101 29.9821 14.0191 29.7227 12.9222C28.8317 9.16756 28.7661 6.71279 28.8607 5.3397C26.5463 4.78589 21.385 3.4189 18.0942 1.51184V1.50574Z" fill="#00447B"/>
<path d="M33.6314 11.595C33.8293 11.7156 34.0572 11.7779 34.2888 11.7746C34.5205 11.7714 34.7466 11.7027 34.9409 11.5766C35.1353 11.4505 35.2901 11.272 35.3874 11.0617C35.4848 10.8515 35.5208 10.618 35.4912 10.3882C35.3357 10.4082 35.186 10.46 35.0514 10.5403C34.9168 10.6206 34.8001 10.7278 34.7086 10.855C34.5618 11.0486 34.4772 11.2821 34.466 11.5248C34.3632 11.3048 34.1955 11.1216 33.9854 11C33.8523 10.917 33.7036 10.8624 33.5484 10.8396C33.3933 10.8167 33.2351 10.8261 33.0837 10.8672C33.1203 11.0196 33.1877 11.1628 33.282 11.288C33.3762 11.4132 33.4951 11.5177 33.6314 11.595Z" fill="#00447B"/>
<path d="M2.54935 11.595C2.41996 11.6752 2.27585 11.7288 2.12548 11.7527C1.97511 11.7765 1.82149 11.7701 1.67363 11.7338C1.36739 11.6806 1.09379 11.5105 0.910502 11.2595C0.727211 11.0085 0.648551 10.6961 0.691106 10.3882C0.848027 10.4069 0.999337 10.458 1.1354 10.5384C1.27146 10.6188 1.38929 10.7266 1.48139 10.855C1.62874 11.0483 1.7134 11.282 1.72397 11.5248C1.82786 11.3051 1.99597 11.1221 2.20608 11C2.33885 10.917 2.48735 10.8623 2.64226 10.8395C2.79717 10.8166 2.95513 10.8261 3.10621 10.8672C3.06898 11.0205 3.00024 11.1644 2.90437 11.2897C2.8085 11.415 2.68759 11.519 2.54935 11.595Z" fill="#00447B"/>
<path d="M34.9527 12.6431C34.8054 12.8364 34.7207 13.0701 34.7101 13.3129C34.6078 13.0926 34.44 12.9093 34.2295 12.7881C34.0965 12.7051 33.9477 12.6505 33.7926 12.6276C33.6374 12.6048 33.4792 12.6142 33.3279 12.6553C33.4101 12.9553 33.6029 13.213 33.8675 13.3765C34.1322 13.54 34.4489 13.5972 34.754 13.5364C35.0591 13.4757 35.3298 13.3016 35.5116 13.0492C35.6934 12.7968 35.7728 12.4849 35.7338 12.1763C35.5786 12.1963 35.4291 12.2482 35.2947 12.3285C35.1603 12.4088 35.0439 12.5159 34.9527 12.6431Z" fill="#00447B"/>
<path d="M1.23419 12.6431C1.38309 12.8358 1.46935 13.0696 1.48134 13.3128C1.58368 13.0926 1.75151 12.9093 1.96192 12.788C2.0943 12.7074 2.24176 12.6547 2.39525 12.6332C2.54873 12.6117 2.70499 12.6218 2.85443 12.6629C2.77649 12.964 2.58416 13.2229 2.31835 13.3844C2.05253 13.546 1.73418 13.5974 1.431 13.5279C1.12471 13.4754 0.850885 13.3058 0.667498 13.0549C0.484111 12.804 0.40556 12.4916 0.448478 12.1838C0.603989 12.2022 0.754035 12.2525 0.88923 12.3315C1.02443 12.4105 1.14186 12.5166 1.23419 12.6431Z" fill="#00447B"/>
<path d="M35.1739 14.3625C35.0178 14.5678 34.9278 14.8158 34.9161 15.0735C34.8072 14.8397 34.6294 14.6449 34.4065 14.5151C34.2651 14.4278 34.1072 14.3703 33.9427 14.3462C33.7782 14.322 33.6106 14.3318 33.45 14.3747C33.4883 14.5366 33.5598 14.6887 33.6598 14.8215C33.7599 14.9544 33.8863 15.0651 34.0312 15.1467C34.3138 15.3051 34.6438 15.3571 34.9614 15.2933C35.279 15.2295 35.5633 15.0541 35.7628 14.7989C35.8653 14.668 35.9395 14.5174 35.981 14.3564C36.0225 14.1955 36.0303 14.0277 36.0039 13.8636C35.8387 13.8852 35.6796 13.9406 35.5368 14.0264C35.394 14.1123 35.2705 14.2267 35.1739 14.3625Z" fill="#00447B"/>
<path d="M1.01302 14.3625C1.17052 14.567 1.26062 14.8155 1.27086 15.0734C1.3816 14.8389 1.56158 14.6441 1.78653 14.515C1.92781 14.4279 2.08538 14.3706 2.24959 14.3464C2.41381 14.3223 2.58122 14.3319 2.74159 14.3747C2.70346 14.5364 2.63227 14.6885 2.5325 14.8213C2.43272 14.9542 2.30652 15.065 2.16184 15.1467C2.02479 15.2323 1.87208 15.29 1.71258 15.3161C1.55309 15.3423 1.38997 15.3366 1.23272 15.2992C0.907732 15.2426 0.617374 15.0622 0.422741 14.7958C0.228108 14.5295 0.144379 14.198 0.189172 13.8712C0.352731 13.8926 0.510186 13.9472 0.651863 14.0317C0.793539 14.1162 0.916444 14.2288 1.01302 14.3625Z" fill="#00447B"/>
<path d="M34.8931 17.0446C34.8142 16.7914 34.6592 16.5687 34.4491 16.4069C34.3175 16.2982 34.1649 16.2179 34.0009 16.1709C33.8368 16.1239 33.6648 16.1113 33.4956 16.1338C33.5412 16.4699 33.7125 16.7763 33.975 16.9912C34.2375 17.2061 34.5716 17.3135 34.9101 17.2918C35.2487 17.2702 35.5664 17.121 35.7993 16.8744C36.0323 16.6278 36.1631 16.3021 36.1655 15.9629C35.9941 15.9618 35.8244 15.996 35.6669 16.0635C35.5094 16.1309 35.3675 16.2302 35.2501 16.355C35.0635 16.543 34.9389 16.7837 34.8931 17.0446Z" fill="#00447B"/>
<path d="M1.29066 17.0446C1.37008 16.7917 1.525 16.5691 1.73463 16.4069C1.8665 16.2982 2.01938 16.2178 2.1837 16.1708C2.34802 16.1238 2.52027 16.1112 2.68968 16.1338C2.64828 16.4701 2.47776 16.7772 2.21414 16.9901C1.95053 17.2031 1.61446 17.3052 1.27693 17.275C0.938043 17.2623 0.617374 17.1183 0.382756 16.8734C0.148138 16.6286 0.0179727 16.302 0.0197943 15.9629C0.191117 15.9619 0.360806 15.9962 0.518293 16.0637C0.675779 16.1312 0.817689 16.2303 0.935185 16.355C1.12087 16.5435 1.24485 16.784 1.29066 17.0446Z" fill="#00447B"/>
<path d="M35.2258 18.4192C35.0154 18.5826 34.8603 18.8069 34.7819 19.0615C34.7338 18.7993 34.6065 18.5581 34.4172 18.3704C34.2998 18.2456 34.1579 18.1464 34.0004 18.079C33.8429 18.0115 33.6732 17.9772 33.5018 17.9783C33.5061 18.3189 33.6391 18.6452 33.8741 18.8917C34.109 19.1383 34.4286 19.2868 34.7686 19.3075C35.1085 19.3282 35.4437 19.2194 35.7068 19.0032C35.9699 18.7869 36.1415 18.4791 36.187 18.1415C36.0163 18.119 35.8428 18.1321 35.6774 18.1798C35.5119 18.2276 35.3582 18.3091 35.2258 18.4192Z" fill="#00447B"/>
<path d="M0.96116 18.4192C1.17154 18.583 1.32695 18.8071 1.40665 19.0615C1.45344 18.7992 1.58028 18.5578 1.76976 18.3704C1.88719 18.2456 2.02909 18.1464 2.18659 18.079C2.34409 18.0115 2.51381 17.9772 2.68515 17.9783C2.68652 18.3194 2.55485 18.6476 2.31812 18.8931C2.08139 19.1387 1.75824 19.2823 1.41733 19.2934C1.07782 19.3228 0.740185 19.219 0.475728 19.0041C0.21127 18.7892 0.0406878 18.4799 0 18.1415C0.1707 18.1189 0.344234 18.1319 0.509661 18.1797C0.675088 18.2275 0.828819 18.309 0.96116 18.4192Z" fill="#00447B"/>
<path d="M34.794 20.7351C34.5314 20.8777 34.3185 21.097 34.1838 21.3637C34.1776 21.0667 34.0807 20.7786 33.9061 20.5383C33.7985 20.3799 33.6594 20.2454 33.4974 20.1432C33.3354 20.0411 33.1541 19.9736 32.9648 19.9448C32.9064 20.3215 32.9933 20.7063 33.208 21.0213C33.4227 21.3363 33.7491 21.558 34.121 21.6414C34.493 21.7248 34.8828 21.6637 35.2114 21.4705C35.54 21.2773 35.7829 20.9664 35.891 20.6009C35.7086 20.5471 35.5172 20.5313 35.3286 20.5544C35.1399 20.5775 34.958 20.639 34.794 20.7351Z" fill="#00447B"/>
<path d="M1.3929 20.7352C1.65236 20.8773 1.86251 21.0949 1.99553 21.3592C2.00246 21.0623 2.09928 20.7745 2.2732 20.5338C2.38103 20.3756 2.52024 20.2413 2.68217 20.1392C2.84411 20.0371 3.02532 19.9694 3.21453 19.9403C3.2769 20.3161 3.19061 20.7013 2.97391 21.0146C2.75721 21.3278 2.42711 21.5444 2.05351 21.6185C1.68411 21.7114 1.29305 21.6566 0.963423 21.4657C0.6338 21.2749 0.391611 20.963 0.28833 20.5963C0.472084 20.5422 0.665038 20.5266 0.855106 20.5505C1.04517 20.5744 1.22826 20.6372 1.3929 20.7352Z" fill="#00447B"/>
<path d="M33.8695 23.0374C33.5629 23.146 33.2967 23.3456 33.1066 23.6095C33.1532 23.286 33.1 22.956 32.9541 22.6636C32.8661 22.4719 32.7393 22.3005 32.5818 22.1603C32.4242 22.0201 32.2393 21.914 32.0387 21.8489C31.9178 22.2438 31.9491 22.6697 32.1264 23.0427C32.3037 23.4157 32.6141 23.7089 32.9967 23.8646C33.3792 24.0202 33.8061 24.0272 34.1935 23.884C34.5809 23.7408 34.9007 23.4578 35.09 23.0908C34.9012 22.9982 34.6953 22.9457 34.4853 22.9366C34.2753 22.9274 34.0656 22.9617 33.8695 23.0374Z" fill="#00447B"/>
<path d="M2.31744 23.0374C2.62371 23.1466 2.88969 23.346 3.08027 23.6095C3.03304 23.286 3.08629 22.9558 3.23284 22.6636C3.32081 22.4719 3.44758 22.3005 3.60514 22.1603C3.7627 22.0201 3.94762 21.914 4.14823 21.8489C4.28277 22.2445 4.25819 22.6769 4.07967 23.0547C3.90116 23.4326 3.5827 23.7261 3.19164 23.8734C2.80873 24.0404 2.37595 24.0521 1.98458 23.906C1.59321 23.76 1.27385 23.4677 1.09387 23.0908C1.28307 22.9978 1.48947 22.9451 1.70007 22.9359C1.91066 22.9267 2.12087 22.9612 2.31744 23.0374Z" fill="#00447B"/>
<path d="M32.7573 24.9047C32.4507 25.0133 32.1846 25.2129 31.9945 25.4768C32.041 25.1533 31.9878 24.8233 31.8419 24.5309C31.7539 24.3392 31.6271 24.1678 31.4696 24.0276C31.312 23.8874 31.1271 23.7813 30.9265 23.7162C30.8057 24.1111 30.837 24.537 31.0142 24.91C31.1915 25.283 31.502 25.5762 31.8845 25.7319C32.267 25.8876 32.694 25.8945 33.0813 25.7513C33.4687 25.6081 33.7885 25.3251 33.9778 24.9581C33.789 24.8656 33.5832 24.8131 33.3731 24.8039C33.1631 24.7947 32.9534 24.829 32.7573 24.9047Z" fill="#00447B"/>
<path d="M3.42816 24.9047C3.73443 25.0139 4.0004 25.2133 4.19099 25.4768C4.14295 25.1533 4.19625 24.8229 4.34355 24.5309C4.43153 24.3392 4.5583 24.1678 4.71586 24.0276C4.87341 23.8874 5.05834 23.7813 5.25894 23.7162C5.39349 24.1118 5.36891 24.5442 5.19039 24.9221C5.01187 25.2999 4.69342 25.5935 4.30236 25.7407C3.91955 25.9085 3.48647 25.9206 3.09488 25.7745C2.7033 25.6284 2.38398 25.3356 2.20459 24.9581C2.39379 24.8651 2.60019 24.8124 2.81078 24.8032C3.02138 24.794 3.23159 24.8286 3.42816 24.9047Z" fill="#00447B"/>
<path d="M31.607 26.8759C31.287 26.9436 30.9956 27.1082 30.7725 27.3473C30.8603 27.0323 30.8497 26.698 30.742 26.3892C30.6789 26.1882 30.575 26.0024 30.4366 25.8435C30.2982 25.6847 30.1284 25.5562 29.9379 25.4662C29.7572 25.8445 29.727 26.2773 29.8535 26.677C29.98 27.0768 30.2537 27.4134 30.6192 27.6189C30.9846 27.8243 31.4145 27.8831 31.8217 27.7834C32.229 27.6837 32.5831 27.4329 32.8123 27.0819C32.6364 26.9663 32.4386 26.8883 32.2312 26.8528C32.0237 26.8174 31.8112 26.8252 31.607 26.8759Z" fill="#00447B"/>
<path d="M4.58149 26.8758C4.90103 26.9436 5.19191 27.1082 5.41449 27.3473C5.32866 27.0334 5.34037 26.7008 5.44806 26.3937C5.51091 26.1928 5.61465 26.0071 5.75276 25.8483C5.89087 25.6894 6.06035 25.5609 6.25055 25.4707C6.4356 25.847 6.4666 26.2807 6.33698 26.6796C6.20736 27.0784 5.92732 27.411 5.55638 27.6066C5.19727 27.8204 4.76912 27.8863 4.36233 27.7904C3.95554 27.6945 3.60195 27.4442 3.37622 27.0925C3.55126 26.9751 3.74872 26.8952 3.95616 26.8579C4.1636 26.8206 4.37652 26.8267 4.58149 26.8758Z" fill="#00447B"/>
<path d="M30.147 28.5694C29.8215 28.6001 29.5135 28.7306 29.2651 28.9432C29.3875 28.6401 29.4141 28.3068 29.3414 27.9881C29.3014 27.7815 29.2191 27.5854 29.0996 27.4121C28.9802 27.2388 28.8261 27.0921 28.6472 26.9812C28.4253 27.3368 28.3468 27.7634 28.4276 28.1747C28.5084 28.5859 28.7426 28.9511 29.0825 29.1963C29.4225 29.4414 29.843 29.5482 30.2587 29.495C30.6745 29.4417 31.0544 29.2325 31.3217 28.9096C31.16 28.7749 30.9721 28.6752 30.7699 28.6166C30.5677 28.5581 30.3556 28.542 30.147 28.5694Z" fill="#00447B"/>
<path d="M6.04163 28.5694C6.36655 28.6004 6.67398 28.7309 6.92193 28.9432C6.80034 28.6399 6.77374 28.3069 6.84565 27.9881C6.88626 27.7815 6.96898 27.5855 7.08868 27.4122C7.20837 27.239 7.36246 27.0923 7.54135 26.9812C7.76435 27.3349 7.84127 27.7613 7.75588 28.1706C7.67049 28.5799 7.42947 28.9401 7.08365 29.1751C6.75088 29.428 6.33282 29.5418 5.91776 29.4922C5.50271 29.4427 5.12315 29.2338 4.85925 28.9096C5.02192 28.7739 5.21106 28.6736 5.41463 28.615C5.61819 28.5565 5.83173 28.5409 6.04163 28.5694Z" fill="#00447B"/>
<path d="M28.6013 30.429C28.2418 30.4452 27.8958 30.5708 27.6097 30.7891C27.7628 30.4629 27.8118 30.0975 27.75 29.7425C27.7185 29.5124 27.6396 29.2914 27.5183 29.0934C27.397 28.8954 27.2359 28.7247 27.0452 28.5922C26.767 28.9697 26.6451 29.44 26.7049 29.9051C26.7648 30.3702 27.0017 30.7943 27.3663 31.0892C27.731 31.3841 28.1953 31.527 28.6626 31.4881C29.13 31.4493 29.5643 31.2317 29.8753 30.8806C29.7058 30.7212 29.5051 30.5987 29.2858 30.5209C29.0665 30.4432 28.8334 30.4119 28.6013 30.429Z" fill="#00447B"/>
<path d="M7.58398 30.429C7.94398 30.4451 8.29049 30.5708 8.57718 30.7891C8.42427 30.4629 8.37476 30.0977 8.43529 29.7425C8.46733 29.5126 8.54647 29.2918 8.66775 29.0938C8.78903 28.8959 8.94985 28.7251 9.14014 28.5922C9.40791 28.967 9.51942 29.4312 9.45109 29.8868C9.38276 30.3423 9.13994 30.7534 8.77399 31.0332C8.42353 31.3319 7.97082 31.4829 7.51121 31.4545C7.05161 31.426 6.62099 31.2203 6.31006 30.8806C6.47949 30.7212 6.68024 30.5987 6.89955 30.5209C7.11885 30.4432 7.35193 30.4119 7.58398 30.429Z" fill="#00447B"/>
<path d="M26.7813 31.9487C26.4212 31.9333 26.0649 32.0286 25.7606 32.2218C25.9407 31.9095 26.0216 31.5498 25.9925 31.1904C25.9804 30.9587 25.9206 30.7319 25.8169 30.5243C25.7132 30.3166 25.5679 30.1326 25.3899 29.9836C25.0965 30.3381 24.9479 30.7903 24.974 31.2497C25.0001 31.709 25.1989 32.1415 25.5305 32.4604C25.8622 32.7794 26.3022 32.9611 26.7622 32.9692C27.2222 32.9772 27.6683 32.8111 28.011 32.504C27.8551 32.3321 27.6654 32.194 27.4539 32.0985C27.2423 32.0029 27.0134 31.9519 26.7813 31.9487Z" fill="#00447B"/>
<path d="M9.41479 31.9487C9.77491 31.9335 10.1311 32.0288 10.4355 32.2218C10.254 31.91 10.173 31.5499 10.2036 31.1904C10.2154 30.9588 10.2749 30.732 10.3783 30.5244C10.4818 30.3168 10.6269 30.1327 10.8047 29.9836C11.0152 30.2497 11.1485 30.5687 11.1898 30.9055C11.231 31.2423 11.1787 31.584 11.0386 31.893C10.8985 32.2021 10.676 32.4666 10.3955 32.6575C10.115 32.8485 9.78727 32.9585 9.44836 32.9754C9.21649 32.9878 8.98456 32.9523 8.76698 32.8712C8.5494 32.7901 8.35083 32.6651 8.18359 32.504C8.33968 32.3319 8.52955 32.1937 8.74138 32.0982C8.9532 32.0026 9.18244 31.9517 9.41479 31.9487Z" fill="#00447B"/>
<path d="M24.5188 33.4393C24.1636 33.3787 23.7984 33.4282 23.4722 33.5811C23.6905 33.2945 23.8161 32.9479 23.8322 32.5879C23.8492 32.3565 23.8183 32.1241 23.7414 31.9051C23.6645 31.6862 23.5432 31.4855 23.3852 31.3156C23.038 31.6275 22.8237 32.0609 22.7867 32.5263C22.7498 32.9917 22.8928 33.4535 23.1865 33.8164C23.4801 34.1793 23.9018 34.4157 24.3647 34.4766C24.8275 34.5376 25.2961 34.4186 25.6737 34.1441C25.5406 33.9529 25.3693 33.7915 25.1704 33.6701C24.9716 33.5488 24.7497 33.4702 24.5188 33.4393Z" fill="#00447B"/>
<path d="M11.6728 33.4393C12.028 33.3784 12.3932 33.428 12.7194 33.5811C12.5009 33.2947 12.3758 32.9479 12.3609 32.5879C12.3436 32.3566 12.3742 32.1242 12.4509 31.9053C12.5275 31.6863 12.6486 31.4856 12.8064 31.3156C13.0493 31.5527 13.2221 31.8523 13.3056 32.1814C13.3892 32.5104 13.3803 32.8562 13.28 33.1805C13.1797 33.5049 12.9918 33.7952 12.737 34.0196C12.4822 34.244 12.1705 34.3937 11.836 34.4523C11.6079 34.4945 11.3735 34.4892 11.1474 34.4367C10.9214 34.3842 10.7087 34.2856 10.5225 34.1472C10.6547 33.9559 10.8252 33.7942 11.0233 33.6724C11.2213 33.5505 11.4425 33.4711 11.6728 33.4393Z" fill="#00447B"/>
<path d="M34.3302 10.4538C34.4191 10.3135 34.4788 10.1566 34.5054 9.99264C34.5321 9.82867 34.5253 9.66099 34.4853 9.49973C34.4454 9.33848 34.3732 9.18698 34.2731 9.05438C34.1731 8.92179 34.0471 8.81086 33.903 8.72827C33.8144 8.86869 33.7552 9.02555 33.7287 9.18943C33.7023 9.35332 33.7092 9.52086 33.7491 9.68199C33.789 9.84313 33.8611 9.99455 33.9609 10.1272C34.0607 10.2598 34.1863 10.3709 34.3302 10.4538Z" fill="#00447B"/>
<path d="M1.85672 10.4538C1.76818 10.3134 1.70892 10.1565 1.68248 9.99262C1.65604 9.82874 1.66298 9.6612 1.70287 9.50006C1.74277 9.33892 1.81479 9.1875 1.91464 9.05488C2.01448 8.92226 2.14008 8.81117 2.2839 8.72827C2.37287 8.86857 2.43249 9.02544 2.45916 9.18941C2.48583 9.35338 2.479 9.52106 2.43907 9.68232C2.39915 9.84358 2.32697 9.99508 2.22688 10.1277C2.12679 10.2603 2.00087 10.3712 1.85672 10.4538Z" fill="#00447B"/>
<path d="M22.8069 34.6048C22.4522 34.5441 22.0875 34.5937 21.7618 34.7467C21.9803 34.4602 22.1055 34.1135 22.1204 33.7535C22.1376 33.522 22.1069 33.2894 22.0303 33.0702C21.9536 32.851 21.8326 32.65 21.6749 32.4796C21.4992 32.6319 21.3571 32.819 21.2576 33.0291C21.158 33.2392 21.1032 33.4677 21.0966 33.7001C21.0875 34.0827 21.1938 34.4591 21.4018 34.7803C20.9828 35.0542 20.5176 35.2496 20.0287 35.357C20.1069 35.4595 20.1593 35.5793 20.1813 35.7064C20.6876 35.5809 21.1624 35.3518 21.5757 35.0336C21.8455 35.3512 22.222 35.5595 22.6345 35.6194C22.8627 35.6616 23.0971 35.6563 23.3231 35.6038C23.5491 35.5513 23.7619 35.4527 23.9481 35.3143C23.8166 35.1242 23.6475 34.9631 23.4512 34.8411C23.2548 34.719 23.0356 34.6386 22.8069 34.6048Z" fill="#00447B"/>
<path d="M16.1276 35.3494C15.6506 35.2408 15.1969 35.0475 14.7881 34.7788C14.9953 34.4573 15.1016 34.0811 15.0932 33.6987C15.0861 33.4664 15.031 33.2381 14.9315 33.028C14.832 32.818 14.6902 32.6308 14.515 32.4781C14.3569 32.6484 14.2357 32.8494 14.1588 33.0685C14.0819 33.2877 14.051 33.5204 14.068 33.7521C14.0841 34.1121 14.2097 34.4586 14.428 34.7453C14.1018 34.5924 13.7366 34.5429 13.3814 34.6034C13.1516 34.6352 12.9309 34.7141 12.7329 34.8352C12.535 34.9562 12.3642 35.1167 12.2311 35.3067C12.417 35.4456 12.6298 35.5445 12.8559 35.597C13.082 35.6495 13.3165 35.6546 13.5447 35.6118C13.957 35.5516 14.3334 35.3433 14.6035 35.026C15.0131 35.3431 15.4844 35.5712 15.9872 35.6957C16.0114 35.5724 16.0591 35.4548 16.1276 35.3494Z" fill="#00447B"/>
<path d="M19.9525 35.7735C19.9303 35.632 19.8622 35.5017 19.7587 35.4027C19.6703 35.3151 19.5603 35.2525 19.4399 35.2212C19.2956 35.1891 19.1464 35.1869 19.0013 35.2147C18.8562 35.2425 18.7183 35.2998 18.5962 35.3829C18.6444 35.2066 18.6655 35.024 18.6587 34.8413C18.6252 34.1227 18.2361 33.6467 18.0942 33.5735C17.9508 33.6467 17.5618 34.1227 17.5297 34.8413C17.5225 35.0239 17.543 35.2065 17.5908 35.3829C17.4687 35.2997 17.3308 35.2424 17.1857 35.2146C17.0406 35.1868 16.8913 35.189 16.7471 35.2212C16.6243 35.2525 16.5124 35.3169 16.4236 35.4073C16.324 35.5104 16.2581 35.6413 16.2345 35.7826C16.2035 35.9115 16.2225 36.0473 16.2876 36.1628C16.3527 36.2783 16.4591 36.3648 16.5854 36.4051C17.1117 36.5577 16.5045 36.2525 16.9881 35.9871C17.3116 35.8116 17.6747 35.9047 17.6518 36.3807C17.6381 36.6858 17.487 37.0642 17.1224 36.9299C16.9591 36.8704 17.1773 37.3144 17.4779 37.3266C17.5816 37.3266 17.87 37.29 17.9096 37.0794C17.9096 37.3464 18.0057 37.6897 18.0942 37.7599C18.1827 37.6866 18.2788 37.3464 18.2788 37.0794C18.317 37.29 18.6053 37.3296 18.7106 37.3266C19.0157 37.3144 19.2293 36.8689 19.0645 36.9299C18.6999 37.0642 18.5489 36.6889 18.5351 36.3807C18.5138 35.9047 18.8769 35.8116 19.1988 35.9871C19.684 36.2495 19.0767 36.5516 19.6016 36.4051C19.7294 36.3642 19.8368 36.2761 19.902 36.1587C19.9672 36.0414 19.9852 35.9036 19.9525 35.7735Z" fill="#00447B"/>
<path d="M18.8876 9.00126H26.6898V8.24301H18.8876V7.19641H17.2994V8.24301H9.49878V9.00126H17.2994V23.8275H14.9881V25.4341H21.2005V23.8275H18.8876V9.00126Z" fill="#00447B"/>
<path d="M28.0888 16.8752H28.1056L25.8827 9.66956H25.425L27.6494 16.8752H21.9694L24.1938 9.66956H23.7361L21.5026 16.9011H21.5209C21.8382 18.0988 23.1869 18.9989 24.8071 18.9989C26.4274 18.9989 27.802 18.0835 28.1025 16.863L28.0888 16.8752Z" fill="#00447B"/>
<path d="M12.4463 9.66956H11.9886L14.2145 16.8752H8.53301L10.7589 9.66956H10.3012L8.08142 16.8691C8.38655 18.0896 9.74133 19.005 11.3768 19.005C13.0123 19.005 14.3457 18.1049 14.6616 16.9072H14.6799L12.4463 9.66956Z" fill="#00447B"/>
</svg>
